<svg width="1402" height="1154" xmlns="http://www.w3.org/2000/svg" xmlns:xlink="http://www.w3.org/1999/xlink" overflow="hidden"><defs><clipPath id="clip0"><rect x="1220" y="421" width="1402" height="1154"/></clipPath></defs><g clip-path="url(#clip0)" transform="translate(-1220 -421)"><rect x="1220" y="421" width="1402" height="1154" fill="#FFFFFF"/><rect x="1601.5" y="541.788" width="190.712" height="988.712" fill="#A6A6A6"/><path d="M1792.21 541.788 1811.5 522.5 1811.5 1511.21 1792.21 1530.5Z" fill="#858585" fill-rule="evenodd"/><path d="M1601.5 541.788 1620.79 522.5 1811.5 522.5 1792.21 541.788Z" fill="#B7B7B7" fill-rule="evenodd"/><path d="M1601.5 541.788 1620.79 522.5 1811.5 522.5 1811.5 1511.21 1792.21 1530.5 1601.5 1530.5ZM1601.5 541.788 1792.21 541.788 1811.5 522.5M1792.21 541.788 1792.21 1530.5" stroke="#000000" stroke-width="6.875" stroke-miterlimit="8" fill="none" fill-rule="evenodd"/><path d="M1831.31 644.068 1838.18 644.074 1838.18 650.949 1831.3 650.943ZM1845.06 644.08 1851.93 644.085 1851.93 650.96 1845.05 650.955ZM1858.81 644.091 1865.68 644.096 1865.68 650.971 1858.8 650.966ZM1872.56 644.102 1879.43 644.108 1879.43 650.983 1872.55 650.977ZM1886.31 644.113 1893.18 644.119 1893.18 650.994 1886.3 650.988ZM1900.06 644.125 1906.93 644.13 1906.93 651.005 1900.05 651ZM1913.81 644.136 1920.68 644.142 1920.68 651.017 1913.8 651.011ZM1927.56 644.147 1934.43 644.153 1934.43 651.028 1927.55 651.022ZM1941.31 644.159 1948.18 644.164 1948.18 651.039 1941.3 651.034ZM1955.06 644.17 1961.93 644.176 1961.93 651.051 1955.05 651.045ZM1968.81 644.181 1974.93 644.186 1974.92 651.061 1968.8 651.056ZM1857.06 666.538 1824.48 647.5 1857.09 628.516C1858.73 627.561 1860.83 628.116 1861.79 629.757 1862.75 631.398 1862.19 633.502 1860.55 634.457L1833.04 650.476 1833.04 644.538 1860.53 660.602C1862.17 661.56 1862.72 663.665 1861.76 665.304 1860.8 666.944 1858.7 667.496 1857.06 666.538ZM1949.17 628.592 1981.75 647.629 1949.14 666.613C1947.5 667.569 1945.4 667.013 1944.44 665.372 1943.49 663.732 1944.04 661.627 1945.68 660.672L1973.19 644.653 1973.19 650.592 1945.7 634.527C1944.06 633.569 1943.51 631.464 1944.47 629.825 1945.43 628.186 1947.53 627.634 1949.17 628.592Z"/><path d="M1963.31 474.062 1970.18 474.063 1970.18 480.938 1963.31 480.938ZM1977.06 474.063 1983.93 474.063 1983.93 480.938 1977.06 480.938ZM1990.81 474.063 1997.68 474.063 1997.68 480.938 1990.81 480.938ZM2004.56 474.063 2011.43 474.063 2011.43 480.938 2004.56 480.938ZM2018.31 474.063 2025.18 474.063 2025.18 480.938 2018.31 480.938ZM2032.06 474.063 2038.93 474.063 2038.93 480.938 2032.06 480.938ZM2045.81 474.063 2052.68 474.063 2052.68 480.938 2045.81 480.938ZM1989.07 496.511 1956.48 477.5 1989.07 458.489C1990.71 457.533 1992.82 458.086 1993.78 459.726 1994.73 461.366 1994.18 463.471 1992.54 464.428L1965.04 480.469 1965.04 474.531 1992.54 490.573C1994.18 491.529 1994.73 493.634 1993.78 495.274 1992.82 496.914 1990.71 497.468 1989.07 496.511ZM2029.77 458.489 2062.36 477.5 2029.77 496.511C2028.13 497.468 2026.03 496.914 2025.07 495.274 2024.12 493.634 2024.67 491.529 2026.31 490.573L2053.81 474.531 2053.81 480.47 2026.31 464.428C2024.67 463.471 2024.12 461.366 2025.07 459.726 2026.03 458.087 2028.13 457.533 2029.77 458.489Z"/><text font-family="Times New Roman,Times New Roman_MSFontService,sans-serif" font-weight="400" font-size="37" transform="matrix(1 0 0 1 2074.61 488)">asynchronous<tspan font-size="37" x="201.094" y="0">, e.g. via </tspan>messaging<tspan font-size="46" x="-525.548" y="4">Message Broker</tspan></text><path d="M6.80693-3.43587 13.6819-3.43423 13.6803 3.44077 6.80528 3.43913ZM20.5569-3.43258 27.4319-3.43093 27.4303 3.44407 20.5553 3.44242ZM34.3069-3.42929 41.1819-3.42764 41.1803 3.44736 34.3053 3.44571ZM48.0569-3.426 54.9319-3.42435 54.9303 3.45065 48.0553 3.449ZM61.8069-3.42271 68.6819-3.42106 68.6803 3.45394 61.8053 3.45229ZM75.5569-3.41942 82.4319-3.41777 82.4303 3.45723 75.5553 3.45558ZM89.3069-3.41612 96.1819-3.41448 96.1803 3.46052 89.3053 3.45888ZM103.057-3.41283 109.932-3.41119 109.93 3.46381 103.055 3.46217ZM116.807-3.40954 123.682-3.4079 123.68 3.4671 116.805 3.46546ZM130.557-3.40625 137.432-3.40461 137.43 3.47039 130.555 3.46875ZM144.307-3.40296 146.988-3.40232 146.986 3.47268 144.305 3.47204ZM32.5696 19.0187-0.0159307-3.72964e-06 32.5787-19.0031C34.2188-19.9593 36.3235-19.4049 37.2797-17.7648 38.2359-16.1247 37.6815-14.02 36.0414-13.0638L8.5376 2.97128 8.53902-2.9672 36.0352 13.0811C37.6748 14.038 38.2282 16.143 37.2712 17.7826 36.3143 19.4223 34.2093 19.9757 32.5696 19.0187ZM121.223-18.9819 153.809 0.0368148 121.214 19.0399C119.574 19.9961 117.469 19.4417 116.513 17.8016 115.557 16.1615 116.111 14.0568 117.751 13.1006L145.255-2.93447 145.254 3.00401 117.758-13.0442C116.118-14.0012 115.565-16.1062 116.522-17.7458 117.479-19.3855 119.584-19.9389 121.223-18.9819Z" transform="matrix(1 0 0 -1 1824.5 718.537)"/><path d="M6.81512-3.4202 13.6901-3.40274 13.6726 3.47224 6.79765 3.45477ZM20.5651-3.38528 27.44-3.36782 27.4226 3.50716 20.5476 3.4897ZM34.315-3.35036 41.19-3.3329 41.1725 3.54208 34.2976 3.52462ZM48.065-3.31544 54.94-3.29798 54.9225 3.577 48.0475 3.55954ZM61.8149-3.28052 68.6899-3.26306 68.6725 3.61192 61.7975 3.59446ZM75.5649-3.2456 82.4399-3.22814 82.4224 3.64684 75.5474 3.62938ZM89.3148-3.21068 96.1898-3.19322 96.1724 3.68176 89.2974 3.6643ZM103.065-3.17576 109.94-3.1583 109.922 3.71668 103.047 3.69922ZM116.815-3.14084 123.69-3.12337 123.672 3.7516 116.797 3.73414ZM130.565-3.10591 137.44-3.08845 137.422 3.78652 130.547 3.76906ZM144.315-3.07099 146.812-3.06465 146.795 3.81033 144.297 3.80398ZM32.5258 19.0936-0.0159314-4.0267e-05 32.6224-18.9281C34.2647-19.8805 36.3681-19.3213 37.3205-17.679 38.2729-16.0367 37.7137-13.9333 36.0714-12.9809L8.53074 2.99092 8.54582-2.94755 36.005 13.1639C37.6424 14.1247 38.191 16.2309 37.2302 17.8683 36.2695 19.5058 34.1632 20.0543 32.5258 19.0936ZM121.084-18.7035 153.626 0.390165 120.988 19.3182C119.345 20.2707 117.242 19.7114 116.289 18.0691 115.337 16.4268 115.896 14.3234 117.538 13.371L145.079-2.60079 145.064 3.33767 117.605-12.7738C115.967-13.7345 115.419-15.8408 116.38-17.4782 117.34-19.1156 119.447-19.6642 121.084-18.7035Z" transform="matrix(1 0 0 -1 1823.5 930.89)"/><path d="M6.80858-3.43289 13.6836-3.42824 13.6789 3.44676 6.80392 3.4421ZM20.5586-3.42359 27.4336-3.41894 27.4289 3.45606 20.5539 3.45141ZM34.3086-3.41429 41.1836-3.40963 41.1789 3.46536 34.3039 3.46071ZM48.0586-3.40498 54.9336-3.40033 54.9289 3.47467 48.0539 3.47002ZM61.8086-3.39568 68.6836-3.39103 68.6789 3.48397 61.8039 3.47932ZM75.5586-3.38638 82.4336-3.38172 82.4289 3.49327 75.5539 3.48862ZM89.3086-3.37707 96.1836-3.37242 96.1789 3.50258 89.3039 3.49793ZM103.059-3.36777 109.934-3.36312 109.929 3.51188 103.054 3.50723ZM116.809-3.35847 123.684-3.35381 123.679 3.52119 116.804 3.51653ZM130.559-3.34916 137.434-3.34451 137.429 3.53049 130.554 3.52584ZM144.309-3.33986 146.807-3.33817 146.802 3.53683 144.304 3.53514ZM32.5613 19.0329-0.0159321-1.07637e-05 32.587-18.9889C34.2276-19.9443 36.332-19.389 37.2875-17.7485 38.243-16.108 37.6877-14.0035 36.0471-13.048L8.5363 2.97502 8.54031-2.96346 36.0295 13.0968C37.6687 14.0545 38.2211 16.1597 37.2635 17.7989 36.3058 19.4382 34.2005 19.9906 32.5613 19.0329ZM121.049-18.929 153.627 0.103948 121.024 19.0928C119.383 20.0483 117.279 19.4929 116.323 17.8524 115.368 16.2119 115.923 14.1075 117.563 13.152L145.074-2.87108 145.07 3.0674 117.581-12.9929C115.942-13.9506 115.389-16.0558 116.347-17.695 117.305-19.3342 119.41-19.8867 121.049-18.929Z" transform="matrix(1 0 0 -1 1823.5 1179.6)"/><path d="M1830.31 1425.06 1837.18 1425.06 1837.18 1431.94 1830.31 1431.94ZM1844.06 1425.06 1850.93 1425.06 1850.93 1431.94 1844.06 1431.94ZM1857.81 1425.06 1864.68 1425.06 1864.68 1431.94 1857.81 1431.94ZM1871.56 1425.06 1878.43 1425.06 1878.43 1431.94 1871.56 1431.94ZM1885.31 1425.06 1892.18 1425.06 1892.18 1431.94 1885.31 1431.94ZM1899.06 1425.06 1900.31 1425.06C1902.2 1425.06 1903.74 1426.6 1903.74 1428.5L1903.74 1428.63 1900.31 1425.2 1905.8 1425.2 1905.8 1432.07 1900.31 1432.07C1898.41 1432.07 1896.87 1430.53 1896.87 1428.63L1896.87 1428.5 1900.31 1431.94 1899.06 1431.94ZM1912.67 1425.2 1919.55 1425.2 1919.55 1432.07 1912.67 1432.07ZM1926.42 1425.2 1933.3 1425.2 1933.3 1432.07 1926.42 1432.07ZM1940.17 1425.2 1947.05 1425.2 1947.05 1432.07 1940.17 1432.07ZM1953.92 1425.2 1960.8 1425.2 1960.8 1432.07 1953.92 1432.07ZM1967.67 1425.2 1970.3 1425.2 1970.3 1432.07 1967.67 1432.07ZM1856.07 1447.51 1823.48 1428.5 1856.07 1409.49C1857.71 1408.53 1859.82 1409.09 1860.78 1410.73 1861.73 1412.37 1861.18 1414.47 1859.54 1415.43L1832.04 1431.47 1832.04 1425.53 1859.54 1441.57C1861.18 1442.53 1861.73 1444.63 1860.78 1446.27 1859.82 1447.91 1857.71 1448.47 1856.07 1447.51ZM1944.54 1409.62 1977.13 1428.63 1944.54 1447.65C1942.9 1448.6 1940.79 1448.05 1939.84 1446.41 1938.88 1444.77 1939.43 1442.66 1941.07 1441.71L1968.57 1425.67 1968.57 1431.6 1941.07 1415.56C1939.43 1414.61 1938.88 1412.5 1939.84 1410.86 1940.79 1409.22 1942.9 1408.67 1944.54 1409.62Z"/><rect x="1617.5" y="558.5" width="159" height="954" stroke="#000000" stroke-width="6.875" stroke-miterlimit="8" fill="#FFFFFF"/><path d="M1607.19 1459.5C1618.06 1459.5 1626.87 1445.84 1626.87 1429 1626.87 1412.16 1618.06 1398.5 1607.19 1398.5L1803.81 1398.5C1814.69 1398.5 1823.5 1412.16 1823.5 1429 1823.5 1445.85 1814.69 1459.5 1803.81 1459.5Z" fill="#BFBFBF" fill-rule="evenodd"/><path d="M1607.19 1459.5C1596.31 1459.5 1587.5 1445.84 1587.5 1429 1587.5 1412.16 1596.31 1398.5 1607.19 1398.5 1618.06 1398.5 1626.87 1412.16 1626.87 1429 1626.87 1445.84 1618.06 1459.5 1607.19 1459.5Z" fill="#D9D9D9" fill-rule="evenodd"/><path d="M1607.19 1398.5C1618.06 1398.5 1626.87 1412.16 1626.87 1429 1626.87 1445.85 1618.06 1459.5 1607.19 1459.5 1596.31 1459.5 1587.5 1445.85 1587.5 1429 1587.5 1412.16 1596.31 1398.5 1607.19 1398.5L1803.81 1398.5C1814.69 1398.5 1823.5 1412.16 1823.5 1429 1823.5 1445.85 1814.69 1459.5 1803.81 1459.5L1607.19 1459.5" stroke="#000000" stroke-width="6.875" stroke-miterlimit="8" fill="none" fill-rule="evenodd"/><path d="M1606.86 1209.5C1617.56 1209.5 1626.23 1196.07 1626.23 1179.5 1626.23 1162.93 1617.56 1149.5 1606.86 1149.5L1804.14 1149.5C1814.83 1149.5 1823.5 1162.93 1823.5 1179.5 1823.5 1196.07 1814.83 1209.5 1804.14 1209.5Z" fill="#BFBFBF" fill-rule="evenodd"/><path d="M1606.86 1209.5C1596.17 1209.5 1587.5 1196.07 1587.5 1179.5 1587.5 1162.93 1596.17 1149.5 1606.86 1149.5 1617.56 1149.5 1626.23 1162.93 1626.23 1179.5 1626.23 1196.07 1617.56 1209.5 1606.86 1209.5Z" fill="#D9D9D9" fill-rule="evenodd"/><path d="M1606.86 1149.5C1617.56 1149.5 1626.23 1162.93 1626.23 1179.5 1626.23 1196.07 1617.56 1209.5 1606.86 1209.5 1596.17 1209.5 1587.5 1196.07 1587.5 1179.5 1587.5 1162.93 1596.17 1149.5 1606.86 1149.5L1804.14 1149.5C1814.83 1149.5 1823.5 1162.93 1823.5 1179.5 1823.5 1196.07 1814.83 1209.5 1804.14 1209.5L1606.86 1209.5" stroke="#000000" stroke-width="6.875" stroke-miterlimit="8" fill="none" fill-rule="evenodd"/><path d="M1664.5 1143C1664.5 1125.05 1680.17 1110.5 1699.5 1110.5 1718.83 1110.5 1734.5 1125.05 1734.5 1143 1734.5 1160.95 1718.83 1175.5 1699.5 1175.5 1680.17 1175.5 1664.5 1160.95 1664.5 1143Z" stroke="#000000" stroke-width="6.875" stroke-miterlimit="8" fill="#FFFFFF" fill-rule="evenodd"/><text font-family="Times New Roman,Times New Roman_MSFontService,sans-serif" font-weight="400" font-size="46" transform="matrix(1 0 0 1 1689.07 1158)">3</text><path d="M1664.5 1398C1664.5 1380.05 1680.39 1365.5 1700 1365.5 1719.61 1365.5 1735.5 1380.05 1735.5 1398 1735.5 1415.95 1719.61 1430.5 1700 1430.5 1680.39 1430.5 1664.5 1415.95 1664.5 1398Z" stroke="#000000" stroke-width="6.875" stroke-miterlimit="8" fill="#FFFFFF" fill-rule="evenodd"/><text font-family="Times New Roman,Times New Roman_MSFontService,sans-serif" font-weight="400" font-size="46" transform="matrix(1 0 0 1 1686.81 1412)">4</text><path d="M1608.19 678.5C1619.06 678.5 1627.87 664.845 1627.87 648 1627.87 631.155 1619.06 617.5 1608.19 617.5L1804.81 617.5C1815.69 617.5 1824.5 631.155 1824.5 648 1824.5 664.845 1815.69 678.5 1804.81 678.5Z" fill="#BFBFBF" fill-rule="evenodd"/><path d="M1608.19 678.5C1597.31 678.5 1588.5 664.845 1588.5 648 1588.5 631.155 1597.31 617.5 1608.19 617.5 1619.06 617.5 1627.87 631.155 1627.87 648 1627.87 664.845 1619.06 678.5 1608.19 678.5Z" fill="#D9D9D9" fill-rule="evenodd"/><path d="M1608.19 617.5C1619.06 617.5 1627.87 631.155 1627.87 648 1627.87 664.845 1619.06 678.5 1608.19 678.5 1597.31 678.5 1588.5 664.845 1588.5 648 1588.5 631.155 1597.31 617.5 1608.19 617.5L1804.81 617.5C1815.69 617.5 1824.5 631.155 1824.5 648 1824.5 664.845 1815.69 678.5 1804.81 678.5L1608.19 678.5" stroke="#000000" stroke-width="6.875" stroke-miterlimit="8" fill="none" fill-rule="evenodd"/><path d="M1607.86 748.5C1618.56 748.5 1627.23 735.068 1627.23 718.5 1627.23 701.931 1618.56 688.499 1607.86 688.499L1805.14 688.5C1815.83 688.5 1824.5 701.931 1824.5 718.5 1824.5 735.069 1815.83 748.5 1805.14 748.5Z" fill="#BFBFBF" fill-rule="evenodd"/><path d="M1607.86 748.5C1597.17 748.5 1588.5 735.068 1588.5 718.5 1588.5 701.931 1597.17 688.499 1607.86 688.499 1618.56 688.499 1627.23 701.931 1627.23 718.5 1627.23 735.068 1618.56 748.5 1607.86 748.5Z" fill="#D9D9D9" fill-rule="evenodd"/><path d="M1607.86 688.5C1618.56 688.5 1627.23 701.931 1627.23 718.5 1627.23 735.069 1618.56 748.5 1607.86 748.5 1597.17 748.5 1588.5 735.069 1588.5 718.5 1588.5 701.931 1597.17 688.5 1607.86 688.5L1805.14 688.5C1815.83 688.5 1824.5 701.931 1824.5 718.5 1824.5 735.069 1815.83 748.5 1805.14 748.5L1607.86 748.5" stroke="#000000" stroke-width="6.875" stroke-miterlimit="8" fill="none" fill-rule="evenodd"/><path d="M1664.5 617C1664.5 599.051 1680.39 584.5 1700 584.5 1719.61 584.5 1735.5 599.051 1735.5 617 1735.5 634.949 1719.61 649.5 1700 649.5 1680.39 649.5 1664.5 634.949 1664.5 617Z" stroke="#000000" stroke-width="6.875" stroke-miterlimit="8" fill="#FFFFFF" fill-rule="evenodd"/><text font-family="Times New Roman,Times New Roman_MSFontService,sans-serif" font-weight="400" font-size="46" transform="matrix(1 0 0 1 1688.76 633)">1</text><path d="M1665.5 747C1665.5 729.051 1681.17 714.5 1700.5 714.5 1719.83 714.5 1735.5 729.051 1735.5 747 1735.5 764.949 1719.83 779.5 1700.5 779.5 1681.17 779.5 1665.5 764.949 1665.5 747Z" stroke="#000000" stroke-width="6.875" stroke-miterlimit="8" fill="#FFFFFF" fill-rule="evenodd"/><text font-family="Times New Roman,Times New Roman_MSFontService,sans-serif" font-weight="400" font-size="46" transform="matrix(1 0 0 1 1688.34 761)">5</text><path d="M1607.19 961.5C1618.06 961.5 1626.87 947.845 1626.87 931 1626.87 914.155 1618.06 900.5 1607.19 900.5L1803.81 900.5C1814.69 900.5 1823.5 914.155 1823.5 931 1823.5 947.845 1814.69 961.5 1803.81 961.5Z" fill="#BFBFBF" fill-rule="evenodd"/><path d="M1607.19 961.5C1596.31 961.5 1587.5 947.845 1587.5 931 1587.5 914.155 1596.31 900.5 1607.19 900.5 1618.06 900.5 1626.87 914.155 1626.87 931 1626.87 947.845 1618.06 961.5 1607.19 961.5Z" fill="#D9D9D9" fill-rule="evenodd"/><path d="M1607.19 900.5C1618.06 900.5 1626.87 914.155 1626.87 931 1626.87 947.845 1618.06 961.5 1607.19 961.5 1596.31 961.5 1587.5 947.845 1587.5 931 1587.5 914.155 1596.31 900.5 1607.19 900.5L1803.81 900.5C1814.69 900.5 1823.5 914.155 1823.5 931 1823.5 947.845 1814.69 961.5 1803.81 961.5L1607.19 961.5" stroke="#000000" stroke-width="6.875" stroke-miterlimit="8" fill="none" fill-rule="evenodd"/><path d="M1664.5 899C1664.5 881.051 1680.39 866.5 1700 866.5 1719.61 866.5 1735.5 881.051 1735.5 899 1735.5 916.949 1719.61 931.5 1700 931.5 1680.39 931.5 1664.5 916.949 1664.5 899Z" stroke="#000000" stroke-width="6.875" stroke-miterlimit="8" fill="#FFFFFF" fill-rule="evenodd"/><text font-family="Times New Roman,Times New Roman_MSFontService,sans-serif" font-weight="400" font-size="46" transform="matrix(1 0 0 1 1688.76 914)">2</text><rect x="1262.5" y="488.696" width="189.804" height="1041.8" fill="#A6A6A6"/><path d="M1452.3 488.696 1471.5 469.5 1471.5 1511.3 1452.3 1530.5Z" fill="#858585" fill-rule="evenodd"/><path d="M1262.5 488.696 1281.7 469.5 1471.5 469.5 1452.3 488.696Z" fill="#B7B7B7" fill-rule="evenodd"/><path d="M1262.5 488.696 1281.7 469.5 1471.5 469.5 1471.5 1511.3 1452.3 1530.5 1262.5 1530.5ZM1262.5 488.696 1452.3 488.696 1471.5 469.5M1452.3 488.696 1452.3 1530.5" stroke="#000000" stroke-width="6.875" stroke-miterlimit="8" fill="none" fill-rule="evenodd"/><rect x="1276.5" y="505.5" width="158" height="1007" stroke="#000000" stroke-width="6.875" stroke-miterlimit="8" fill="#FFFFFF"/><text font-family="Times New Roman,Times New Roman_MSFontService,sans-serif" font-weight="400" font-size="55" transform="matrix(6.12323e-17 -1 1 6.12323e-17 1375.21 1146)">Orchestrator</text><rect x="1976.5" y="573.703" width="573.797" height="210.797" fill="#A6A6A6"/><path d="M2550.3 573.703 2565.5 558.5 2565.5 769.297 2550.3 784.5Z" fill="#858585" fill-rule="evenodd"/><path d="M1976.5 573.703 1991.7 558.5 2565.5 558.5 2550.3 573.703Z" fill="#B7B7B7" fill-rule="evenodd"/><path d="M1976.5 573.703 1991.7 558.5 2565.5 558.5 2565.5 769.297 2550.3 784.5 1976.5 784.5ZM1976.5 573.703 2550.3 573.703 2565.5 558.5M2550.3 573.703 2550.3 784.5" stroke="#000000" stroke-width="6.875" stroke-miterlimit="8" fill="none" fill-rule="evenodd"/><rect x="1993.5" y="593.5" width="536" height="172" stroke="#000000" stroke-width="6.875" stroke-miterlimit="8" fill="#FFFFFF"/><text font-family="Times New Roman,Times New Roman_MSFontService,sans-serif" font-weight="400" font-size="50" transform="matrix(1 0 0 1 2019.26 668)">Problem &amp; Solution<tspan font-size="50" x="0" y="60">Mapping Service</tspan></text><rect x="2460.5" y="612.5" width="47.9998" height="59.9998" stroke="#000000" stroke-width="6.875" stroke-miterlimit="8" fill="#FFFFFF"/><rect x="2449.5" y="641.5" width="20" height="13.0001" stroke="#000000" stroke-width="6.875" stroke-miterlimit="8" fill="#FFFFFF"/><rect x="2449.5" y="623.5" width="20" height="13.0001" stroke="#000000" stroke-width="6.875" stroke-miterlimit="8" fill="#FFFFFF"/><rect x="1976.5" y="828.232" width="574.268" height="204.268" fill="#A6A6A6"/><path d="M2550.77 828.232 2565.5 813.5 2565.5 1017.77 2550.77 1032.5Z" fill="#858585" fill-rule="evenodd"/><path d="M1976.5 828.232 1991.23 813.5 2565.5 813.5 2550.77 828.232Z" fill="#B7B7B7" fill-rule="evenodd"/><path d="M1976.5 828.232 1991.23 813.5 2565.5 813.5 2565.5 1017.77 2550.77 1032.5 1976.5 1032.5ZM1976.5 828.232 2550.77 828.232 2565.5 813.5M2550.77 828.232 2550.77 1032.5" stroke="#000000" stroke-width="6.875" stroke-miterlimit="8" fill="none" fill-rule="evenodd"/><rect x="1993.5" y="849.5" width="534" height="162" stroke="#000000" stroke-width="6.875" stroke-miterlimit="8" fill="#FFFFFF"/><text font-family="Times New Roman,Times New Roman_MSFontService,sans-serif" font-weight="400" font-size="50" transform="matrix(1 0 0 1 2019.26 919)">Quantum Circuit<tspan font-size="50" x="0" y="60">Generation Service</tspan></text><rect x="2460.5" y="867.5" width="47.9998" height="60.9998" stroke="#000000" stroke-width="6.875" stroke-miterlimit="8" fill="#FFFFFF"/><rect x="2449.5" y="896.5" width="20" height="14.0001" stroke="#000000" stroke-width="6.875" stroke-miterlimit="8" fill="#FFFFFF"/><rect x="2449.5" y="878.5" width="20" height="12.9997" stroke="#000000" stroke-width="6.875" stroke-miterlimit="8" fill="#FFFFFF"/><rect x="1976.5" y="1077.23" width="574.268" height="204.268" fill="#A6A6A6"/><path d="M2550.77 1077.23 2565.5 1062.5 2565.5 1266.77 2550.77 1281.5Z" fill="#858585" fill-rule="evenodd"/><path d="M1976.5 1077.23 1991.23 1062.5 2565.5 1062.5 2550.77 1077.23Z" fill="#B7B7B7" fill-rule="evenodd"/><path d="M1976.5 1077.23 1991.23 1062.5 2565.5 1062.5 2565.5 1266.77 2550.77 1281.5 1976.5 1281.5ZM1976.5 1077.23 2550.77 1077.23 2565.5 1062.5M2550.77 1077.23 2550.77 1281.5" stroke="#000000" stroke-width="6.875" stroke-miterlimit="8" fill="none" fill-rule="evenodd"/><rect x="1993.5" y="1098.5" width="534" height="163" stroke="#000000" stroke-width="6.875" stroke-miterlimit="8" fill="#FFFFFF"/><text font-family="Times New Roman,Times New Roman_MSFontService,sans-serif" font-weight="400" font-size="50" transform="matrix(1 0 0 1 2019.26 1168)">Quantum Circuit<tspan font-size="50" x="0" y="60">Refinement</tspan><tspan font-size="50" x="246.927" y="60">Service</tspan></text><rect x="2461.5" y="1116.5" width="47.9998" height="60.0001" stroke="#000000" stroke-width="6.875" stroke-miterlimit="8" fill="#FFFFFF"/><rect x="2450.5" y="1145.5" width="20" height="13.0001" stroke="#000000" stroke-width="6.875" stroke-miterlimit="8" fill="#FFFFFF"/><rect x="2450.5" y="1127.5" width="20" height="13.0001" stroke="#000000" stroke-width="6.875" stroke-miterlimit="8" fill="#FFFFFF"/><rect x="1976.5" y="1327.23" width="574.268" height="204.268" fill="#A6A6A6"/><path d="M2550.77 1327.23 2565.5 1312.5 2565.5 1516.77 2550.77 1531.5Z" fill="#858585" fill-rule="evenodd"/><path d="M1976.5 1327.23 1991.23 1312.5 2565.5 1312.5 2550.77 1327.23Z" fill="#B7B7B7" fill-rule="evenodd"/><path d="M1976.5 1327.23 1991.23 1312.5 2565.5 1312.5 2565.5 1516.77 2550.77 1531.5 1976.5 1531.5ZM1976.5 1327.23 2550.77 1327.23 2565.5 1312.5M2550.77 1327.23 2550.77 1531.5" stroke="#000000" stroke-width="6.875" stroke-miterlimit="8" fill="none" fill-rule="evenodd"/><rect x="1993.5" y="1348.5" width="534" height="164" stroke="#000000" stroke-width="6.875" stroke-miterlimit="8" fill="#FFFFFF"/><text font-family="Times New Roman,Times New Roman_MSFontService,sans-serif" font-weight="400" font-size="50" transform="matrix(1 0 0 1 2019.26 1419)">Quantum Circuit<tspan font-size="50" x="0" y="60">Execution</tspan><tspan font-size="50" x="216.563" y="60">Service</tspan></text><rect x="2460.5" y="1364.5" width="47.9998" height="60.0001" stroke="#000000" stroke-width="6.875" stroke-miterlimit="8" fill="#FFFFFF"/><rect x="2449.5" y="1392.5" width="20" height="14.0001" stroke="#000000" stroke-width="6.875" stroke-miterlimit="8" fill="#FFFFFF"/><rect x="2449.5" y="1374.5" width="20" height="13.9998" stroke="#000000" stroke-width="6.875" stroke-miterlimit="8" fill="#FFFFFF"/><path d="M6.80624-3.4375 13.6812-3.4375 13.6812 3.4375 6.80624 3.4375ZM20.5562-3.4375 27.4312-3.4375 27.4312 3.4375 20.5562 3.4375ZM34.3062-3.4375 41.1812-3.4375 41.1812 3.4375 34.3062 3.4375ZM48.0562-3.4375 54.9312-3.4375 54.9312 3.4375 48.0562 3.4375ZM61.7662 3.47755 61.7662 10.3526 54.8912 10.3526 54.8912 3.47755ZM61.7662 17.2276 61.7662 24.1026 54.8912 24.1026 54.8912 17.2276ZM61.7662 30.9776 61.7662 37.8526 54.8912 37.8526 54.8912 30.9776ZM61.7662 44.7276 61.7662 51.6026 54.8912 51.6026 54.8912 44.7276ZM61.7662 58.4776 61.7662 65.3526 54.8912 65.3526 54.8912 58.4776ZM61.7662 72.2276 61.7662 79.1026 54.8912 79.1026 54.8912 72.2276ZM61.7662 85.9776 61.7662 92.8526 54.8912 92.8526 54.8912 85.9776ZM61.7662 99.7276 61.7662 106.603 54.8912 106.603 54.8912 99.7276ZM61.7662 113.478 61.7662 120.353 54.8912 120.353 54.8912 113.478ZM61.7662 127.228 61.7662 134.103 54.8912 134.103 54.8912 127.228ZM61.7662 140.978 61.7662 147.853 54.8912 147.853 54.8912 140.978ZM61.7662 154.728 61.7662 161.603 54.8912 161.603 54.8912 154.728ZM61.7662 168.478 61.7662 175.353 54.8912 175.353 54.8912 168.478ZM61.7662 182.228 61.7662 189.103 54.8912 189.103 54.8912 182.228ZM61.7662 195.978 61.7662 202.853 54.8912 202.853 54.8912 195.978ZM61.7662 209.728 61.7662 216.603 54.8912 216.603 54.8912 209.728ZM61.7662 223.478 61.7662 230.353 54.8912 230.353 54.8912 223.478ZM61.7662 237.228 61.7662 244.103 54.8912 244.103 54.8912 237.228ZM61.7662 250.978 61.7662 257.853 54.8912 257.853 54.8912 250.978ZM61.7662 264.728 61.7662 271.603 54.8912 271.603 54.8912 264.728ZM61.7662 278.478 61.7662 285.353 54.8912 285.353 54.8912 278.478ZM61.7662 292.228 61.7662 299.103 54.8912 299.103 54.8912 292.228ZM61.7662 305.978 61.7662 312.853 54.8912 312.853 54.8912 305.978ZM61.7662 319.728 61.7662 326.603 54.8912 326.603 54.8912 319.728ZM61.7662 333.478 61.7662 340.353 54.8912 340.353 54.8912 333.478ZM62.8875 339.231 69.7625 339.231 69.7625 346.106 62.8875 346.106ZM76.6375 339.231 83.5125 339.231 83.5125 346.106 76.6375 346.106ZM90.3875 339.231 97.2625 339.231 97.2625 346.106 90.3875 346.106ZM104.137 339.231 109.851 339.231 109.851 346.106 104.137 346.106ZM32.5742 19.0109-0.0159314 0 32.5742-19.0109C34.2141-19.9675 36.3189-19.4136 37.2755-17.7737 38.2321-16.1339 37.6782-14.029 36.0383-13.0724L8.53831 2.96924 8.53831-2.96924 36.0383 13.0724C37.6782 14.029 38.2321 16.1339 37.2755 17.7737 36.3189 19.4136 34.2141 19.9675 32.5742 19.0109ZM84.0832 323.658 116.673 342.669 84.0832 361.68C82.4433 362.636 80.3385 362.082 79.3819 360.443 78.4253 358.803 78.9792 356.698 80.6191 355.741L108.119 339.7 108.119 345.638 80.6191 329.596C78.9792 328.64 78.4253 326.535 79.3819 324.895 80.3385 323.255 82.4433 322.701 84.0832 323.658Z" transform="matrix(1 0 0 -1 1471.5 990.169)"/><path d="M6.80624-3.4375 13.6812-3.4375 13.6812 3.4375 6.80624 3.4375ZM20.5562-3.4375 27.4312-3.4375 27.4312 3.4375 20.5562 3.4375ZM34.3062-3.4375 41.1812-3.4375 41.1812 3.4375 34.3062 3.4375ZM48.0562-3.4375 54.9312-3.4375 54.9312 3.4375 48.0562 3.4375ZM61.7665 3.47723 61.7665 10.3522 54.8915 10.3522 54.8915 3.47723ZM61.7665 17.2272 61.7665 24.1022 54.8915 24.1022 54.8915 17.2272ZM61.7665 30.9772 61.7665 37.8522 54.8915 37.8522 54.8915 30.9772ZM61.7665 44.7272 61.7665 51.6022 54.8915 51.6022 54.8915 44.7272ZM61.7665 58.4772 61.7665 65.3522 54.8915 65.3522 54.8915 58.4772ZM61.7665 72.2272 61.7665 79.1022 54.8915 79.1022 54.8915 72.2272ZM61.7665 85.9772 61.7665 92.8522 54.8915 92.8522 54.8915 85.9772ZM61.7665 99.7272 61.7665 106.602 54.8915 106.602 54.8915 99.7272ZM61.7665 113.477 61.7665 120.352 54.8915 120.352 54.8915 113.477ZM61.7665 127.227 61.7665 134.102 54.8915 134.102 54.8915 127.227ZM61.7665 140.977 61.7665 147.852 54.8915 147.852 54.8915 140.977ZM61.7665 154.727 61.7665 161.602 54.8915 161.602 54.8915 154.727ZM61.7665 168.477 61.7665 175.352 54.8915 175.352 54.8915 168.477ZM61.7665 182.227 61.7665 189.102 54.8915 189.102 54.8915 182.227ZM61.7665 195.977 61.7665 202.852 54.8915 202.852 54.8915 195.977ZM61.7665 209.727 61.7665 216.602 54.8915 216.602 54.8915 209.727ZM61.7665 223.477 61.7665 230.352 54.8915 230.352 54.8915 223.477ZM61.7665 237.227 61.7665 244.102 54.8915 244.102 54.8915 237.227ZM61.7665 250.977 61.7665 257.852 54.8915 257.852 54.8915 250.977ZM61.7665 264.727 61.7665 271.602 54.8915 271.602 54.8915 264.727ZM64.7724 268.596 71.6474 268.596 71.6474 275.471 64.7724 275.471ZM78.5224 268.596 85.3974 268.596 85.3974 275.471 78.5224 275.471ZM92.2724 268.596 99.1474 268.596 99.1474 275.471 92.2724 275.471ZM106.022 268.596 109.851 268.596 109.851 275.471 106.022 275.471ZM32.5742 19.0109-0.0159314 0 32.5742-19.0109C34.2141-19.9675 36.3189-19.4136 37.2755-17.7737 38.2321-16.1339 37.6782-14.029 36.0383-13.0724L8.53831 2.96924 8.53831-2.96924 36.0383 13.0724C37.6782 14.029 38.2321 16.1339 37.2755 17.7737 36.3189 19.4136 34.2141 19.9675 32.5742 19.0109ZM84.0835 253.023 116.674 272.034 84.0835 291.045C82.4437 292.001 80.3388 291.447 79.3822 289.808 78.4257 288.168 78.9796 286.063 80.6194 285.106L108.119 269.065 108.119 275.003 80.6194 258.961C78.9796 258.005 78.4257 255.9 79.3822 254.26 80.3388 252.62 82.4437 252.066 84.0835 253.023Z" transform="matrix(1 0 0 -1 1471.5 990.534)"/><path d="M6.80624-3.4375 13.6812-3.4375 13.6812 3.4375 6.80624 3.4375ZM20.5562-3.4375 27.4312-3.4375 27.4312 3.4375 20.5562 3.4375ZM34.3062-3.4375 41.1812-3.4375 41.1812 3.4375 34.3062 3.4375ZM48.0562-3.4375 54.9312-3.4375 54.9312 3.4375 48.0562 3.4375ZM61.1936 4.05011 61.1936 10.9251 54.3186 10.9251 54.3186 4.05011ZM61.1936 17.8001 61.1936 24.6751 54.3186 24.6751 54.3186 17.8001ZM61.1936 31.5501 61.1936 38.4251 54.3186 38.4251 54.3186 31.5501ZM61.1936 45.3001 61.1936 52.1751 54.3186 52.1751 54.3186 45.3001ZM61.1936 59.0501 61.1936 59.5018 57.7561 56.0643 64.1795 56.0643 64.1795 62.9393 57.7561 62.9393C55.8577 62.9393 54.3186 61.4003 54.3186 59.5018L54.3186 59.0501ZM71.0545 56.0643 77.9295 56.0643 77.9295 62.9393 71.0545 62.9393ZM84.8045 56.0643 91.6795 56.0643 91.6795 62.9393 84.8045 62.9393ZM98.5545 56.0643 105.429 56.0643 105.429 62.9393 98.5545 62.9393ZM32.5742 19.0109-0.0159314 0 32.5742-19.0109C34.2141-19.9675 36.3189-19.4136 37.2755-17.7737 38.2321-16.1339 37.6782-14.029 36.0383-13.0724L8.53831 2.96924 8.53831-2.96924 36.0383 13.0724C37.6782 14.029 38.2321 16.1339 37.2755 17.7737 36.3189 19.4136 34.2141 19.9675 32.5742 19.0109ZM82.9381 40.4909 115.528 59.5018 82.9381 78.5127C81.2982 79.4693 79.1934 78.9154 78.2368 77.2755 77.2802 75.6356 77.8341 73.5308 79.474 72.5742L106.974 56.5325 106.974 62.471 79.474 46.4293C77.8341 45.4728 77.2802 43.3679 78.2368 41.728 79.1934 40.0882 81.2982 39.5343 82.9381 40.4909Z" transform="matrix(1 0 0 -1 1471.5 991.002)"/><path d="M1478.31 987.062 1485.18 987.062 1485.18 993.937 1478.31 993.937ZM1492.06 987.062 1498.93 987.062 1498.93 993.937 1492.06 993.937ZM1505.81 987.062 1512.68 987.062 1512.68 993.937 1505.81 993.937ZM1519.56 987.062 1526.43 987.062 1526.43 993.937 1519.56 993.937ZM1532.69 994.55 1532.69 1001.42 1525.82 1001.42 1525.82 994.55ZM1532.69 1008.3 1532.69 1015.17 1525.82 1015.17 1525.82 1008.3ZM1532.69 1022.05 1532.69 1028.92 1525.82 1028.92 1525.82 1022.05ZM1532.69 1035.8 1532.69 1042.67 1525.82 1042.67 1525.82 1035.8ZM1532.69 1049.55 1532.69 1056.42 1525.82 1056.42 1525.82 1049.55ZM1532.69 1063.3 1532.69 1070.17 1525.82 1070.17 1525.82 1063.3ZM1532.69 1077.05 1532.69 1083.92 1525.82 1083.92 1525.82 1077.05ZM1532.69 1090.8 1532.69 1097.67 1525.82 1097.67 1525.82 1090.8ZM1532.69 1104.55 1532.69 1111.42 1525.82 1111.42 1525.82 1104.55ZM1532.69 1118.3 1532.69 1125.17 1525.82 1125.17 1525.82 1118.3ZM1532.69 1132.05 1532.69 1138.92 1525.82 1138.92 1525.82 1132.05ZM1532.69 1145.8 1532.69 1152.67 1525.82 1152.67 1525.82 1145.8ZM1532.69 1159.55 1532.69 1166.42 1525.82 1166.42 1525.82 1159.55ZM1532.69 1173.3 1532.69 1179.32 1529.26 1175.89 1530.11 1175.89 1530.11 1182.76 1529.26 1182.76C1527.36 1182.76 1525.82 1181.22 1525.82 1179.32L1525.82 1173.3ZM1536.98 1175.89 1543.86 1175.89 1543.86 1182.76 1536.98 1182.76ZM1550.73 1175.89 1557.61 1175.89 1557.61 1182.76 1550.73 1182.76ZM1564.48 1175.89 1571.36 1175.89 1571.36 1182.76 1564.48 1182.76ZM1578.23 1175.89 1580.21 1175.89 1580.21 1182.76 1578.23 1182.76ZM1504.07 1009.51 1471.48 990.5 1504.07 971.489C1505.71 970.532 1507.82 971.086 1508.78 972.726 1509.73 974.366 1509.18 976.471 1507.54 977.427L1480.04 993.469 1480.04 987.531 1507.54 1003.57C1509.18 1004.53 1509.73 1006.63 1508.78 1008.27 1507.82 1009.91 1505.71 1010.47 1504.07 1009.51ZM1554.44 1160.31 1587.03 1179.32 1554.44 1198.34C1552.8 1199.29 1550.69 1198.74 1549.74 1197.1 1548.78 1195.46 1549.33 1193.35 1550.97 1192.4L1578.47 1176.36 1578.47 1182.29 1550.97 1166.25C1549.33 1165.3 1548.78 1163.19 1549.74 1161.55 1550.69 1159.91 1552.8 1159.36 1554.44 1160.31Z"/><path d="M1478.31 987.062 1485.18 987.062 1485.18 993.937 1478.31 993.937ZM1492.06 987.062 1498.93 987.062 1498.93 993.937 1492.06 993.937ZM1505.81 987.062 1512.68 987.062 1512.68 993.937 1505.81 993.937ZM1519.56 987.062 1526.43 987.062 1526.43 993.937 1519.56 993.937ZM1532.69 994.55 1532.69 1001.43 1525.82 1001.43 1525.82 994.55ZM1532.69 1008.3 1532.69 1015.18 1525.82 1015.18 1525.82 1008.3ZM1532.69 1022.05 1532.69 1028.93 1525.82 1028.93 1525.82 1022.05ZM1532.69 1035.8 1532.69 1042.68 1525.82 1042.68 1525.82 1035.8ZM1532.69 1049.55 1532.69 1056.43 1525.82 1056.43 1525.82 1049.55ZM1532.69 1063.3 1532.69 1070.18 1525.82 1070.18 1525.82 1063.3ZM1532.69 1077.05 1532.69 1083.93 1525.82 1083.93 1525.82 1077.05ZM1532.69 1090.8 1532.69 1097.68 1525.82 1097.68 1525.82 1090.8ZM1532.69 1104.55 1532.69 1111.43 1525.82 1111.43 1525.82 1104.55ZM1532.69 1118.3 1532.69 1125.18 1525.82 1125.18 1525.82 1118.3ZM1532.69 1132.05 1532.69 1138.93 1525.82 1138.93 1525.82 1132.05ZM1532.69 1145.8 1532.69 1152.68 1525.82 1152.68 1525.82 1145.8ZM1532.69 1159.55 1532.69 1166.43 1525.82 1166.43 1525.82 1159.55ZM1532.69 1173.3 1532.69 1180.18 1525.82 1180.18 1525.82 1173.3ZM1532.69 1187.05 1532.69 1193.93 1525.82 1193.93 1525.82 1187.05ZM1532.69 1200.8 1532.69 1207.68 1525.82 1207.68 1525.82 1200.8ZM1532.69 1214.55 1532.69 1221.43 1525.82 1221.43 1525.82 1214.55ZM1532.69 1228.3 1532.69 1235.18 1525.82 1235.18 1525.82 1228.3ZM1532.69 1242.05 1532.69 1248.93 1525.82 1248.93 1525.82 1242.05ZM1532.69 1255.8 1532.69 1262.68 1525.82 1262.68 1525.82 1255.8ZM1532.69 1269.55 1532.69 1276.43 1525.82 1276.43 1525.82 1269.55ZM1532.69 1283.3 1532.69 1290.18 1525.82 1290.18 1525.82 1283.3ZM1532.69 1297.05 1532.69 1303.93 1525.82 1303.93 1525.82 1297.05ZM1532.69 1310.8 1532.69 1317.68 1525.82 1317.68 1525.82 1310.8ZM1532.69 1324.55 1532.69 1331.43 1525.82 1331.43 1525.82 1324.55ZM1532.69 1338.3 1532.69 1345.18 1525.82 1345.18 1525.82 1338.3ZM1532.69 1352.05 1532.69 1358.93 1525.82 1358.93 1525.82 1352.05ZM1532.69 1365.8 1532.69 1372.68 1525.82 1372.68 1525.82 1365.8ZM1532.69 1379.55 1532.69 1386.43 1525.82 1386.43 1525.82 1379.55ZM1532.69 1393.3 1532.69 1400.18 1525.82 1400.18 1525.82 1393.3ZM1532.69 1407.05 1532.69 1413.93 1525.82 1413.93 1525.82 1407.05ZM1532.69 1420.8 1532.69 1427.68 1525.82 1427.68 1525.82 1420.8ZM1534.95 1425.42 1541.83 1425.42 1541.83 1432.29 1534.95 1432.29ZM1548.7 1425.42 1555.58 1425.42 1555.58 1432.29 1548.7 1432.29ZM1562.45 1425.42 1569.33 1425.42 1569.33 1432.29 1562.45 1432.29ZM1576.2 1425.42 1580.21 1425.42 1580.21 1432.29 1576.2 1432.29ZM1504.07 1009.51 1471.48 990.5 1504.07 971.489C1505.71 970.532 1507.82 971.086 1508.78 972.726 1509.73 974.366 1509.18 976.471 1507.54 977.427L1480.04 993.469 1480.04 987.531 1507.54 1003.57C1509.18 1004.53 1509.73 1006.63 1508.78 1008.27 1507.82 1009.91 1505.71 1010.47 1504.07 1009.51ZM1554.44 1409.84 1587.03 1428.86 1554.44 1447.87C1552.8 1448.82 1550.69 1448.27 1549.74 1446.63 1548.78 1444.99 1549.33 1442.88 1550.97 1441.93L1578.47 1425.89 1578.47 1431.82 1550.97 1415.78C1549.33 1414.83 1548.78 1412.72 1549.74 1411.08 1550.69 1409.44 1552.8 1408.89 1554.44 1409.84Z"/></g></svg>