<svg width="1328" height="1441" xmlns="http://www.w3.org/2000/svg" xmlns:xlink="http://www.w3.org/1999/xlink" overflow="hidden"><defs><clipPath id="clip0"><rect x="1739" y="742" width="1328" height="1441"/></clipPath></defs><g clip-path="url(#clip0)" transform="translate(-1739 -742)"><text font-family="Times New Roman,Times New Roman_MSFontService,sans-serif" font-weight="400" font-size="41" transform="matrix(1 0 0 1 2489.78 1950)">initiate<tspan font-size="41" x="-22.9165" y="49">execution</tspan></text><path d="M2654 1968.86C2654.35 1944.29 2674.33 1924.65 2698.63 1925 2722.68 1925.35 2742 1945.17 2742 1969.5" stroke="#000000" stroke-width="10.3125" stroke-miterlimit="8" fill="none" fill-rule="evenodd"/><path d="M2671.5 1973C2671.5 1958.36 2683.36 1946.5 2698 1946.5 2712.64 1946.5 2724.5 1958.36 2724.5 1973 2724.5 1987.64 2712.64 1999.5 2698 1999.5 2683.36 1999.5 2671.5 1987.64 2671.5 1973Z" stroke="#000000" stroke-width="6.875" stroke-miterlimit="8" fill="#FFFFFF" fill-rule="evenodd"/><path d="M2699.5 1999.5 2699.5 2134.11" stroke="#000000" stroke-width="6.875" stroke-miterlimit="8" fill="none" fill-rule="evenodd"/><path d="M0 0 94.3015 0.000360892" stroke="#000000" stroke-width="6.875" stroke-miterlimit="8" fill="none" fill-rule="evenodd" transform="matrix(-6.12323e-17 -1 -1 6.12323e-17 2699.5 1925.8)"/><path d="M2763 1968.86C2763.35 1944.29 2783.33 1924.65 2807.63 1925 2831.68 1925.35 2851 1945.17 2851 1969.5" stroke="#000000" stroke-width="10.3125" stroke-miterlimit="8" fill="none" fill-rule="evenodd"/><path d="M2779.5 1973C2779.5 1958.36 2791.36 1946.5 2806 1946.5 2820.64 1946.5 2832.5 1958.36 2832.5 1973 2832.5 1987.64 2820.64 1999.5 2806 1999.5 2791.36 1999.5 2779.5 1987.64 2779.5 1973Z" stroke="#000000" stroke-width="6.875" stroke-miterlimit="8" fill="#FFFFFF" fill-rule="evenodd"/><path d="M2807.5 1999.5 2807.5 2134.11" stroke="#000000" stroke-width="6.875" stroke-miterlimit="8" fill="none" fill-rule="evenodd"/><path d="M0 0 94.3015 0.000360892" stroke="#000000" stroke-width="6.875" stroke-miterlimit="8" fill="none" fill-rule="evenodd" transform="matrix(-6.12323e-17 -1 -1 6.12323e-17 2807.5 1925.8)"/><text font-family="Times New Roman,Times New Roman_MSFontService,sans-serif" font-weight="400" font-size="41" transform="matrix(1 0 0 1 2893.06 1950)">fetch<tspan font-size="41" x="-12.6042" y="49">results</tspan></text><rect x="2081.5" y="846.789" width="190.711" height="1099.71" fill="#A6A6A6"/><path d="M2272.21 846.789 2291.5 827.5 2291.5 1927.21 2272.21 1946.5Z" fill="#858585" fill-rule="evenodd"/><path d="M2081.5 846.789 2100.79 827.5 2291.5 827.5 2272.21 846.789Z" fill="#B7B7B7" fill-rule="evenodd"/><path d="M2081.5 846.789 2100.79 827.5 2291.5 827.5 2291.5 1927.21 2272.21 1946.5 2081.5 1946.5ZM2081.5 846.789 2272.21 846.789 2291.5 827.5M2272.21 846.789 2272.21 1946.5" stroke="#000000" stroke-width="6.875" stroke-miterlimit="8" fill="none" fill-rule="evenodd"/><path d="M2311.31 1002.07 2318.18 1002.07 2318.18 1008.95 2311.3 1008.94ZM2325.06 1002.08 2331.93 1002.08 2331.93 1008.96 2325.05 1008.95ZM2338.81 1002.09 2345.68 1002.1 2345.68 1008.97 2338.8 1008.97ZM2352.56 1002.1 2359.43 1002.11 2359.43 1008.98 2352.55 1008.98ZM2366.31 1002.11 2373.18 1002.12 2373.18 1008.99 2366.3 1008.99ZM2380.06 1002.12 2386.93 1002.13 2386.93 1009.01 2380.05 1009ZM2393.81 1002.14 2400.68 1002.14 2400.68 1009.02 2393.8 1009.01ZM2407.56 1002.15 2414.43 1002.15 2414.43 1009.03 2407.55 1009.02ZM2421.31 1002.16 2428.18 1002.16 2428.18 1009.04 2421.3 1009.03ZM2435.06 1002.17 2441.93 1002.18 2441.93 1009.05 2435.05 1009.04ZM2448.81 1002.18 2454.93 1002.19 2454.92 1009.06 2448.8 1009.06ZM2337.06 1024.54 2304.48 1005.5 2337.09 986.516C2338.73 985.561 2340.83 986.116 2341.79 987.757 2342.75 989.398 2342.19 991.502 2340.55 992.457L2313.04 1008.48 2313.04 1002.54 2340.53 1018.6C2342.17 1019.56 2342.72 1021.67 2341.76 1023.3 2340.8 1024.94 2338.7 1025.5 2337.06 1024.54ZM2429.17 986.591 2461.75 1005.63 2429.14 1024.61C2427.5 1025.57 2425.4 1025.01 2424.44 1023.37 2423.49 1021.73 2424.04 1019.63 2425.68 1018.67L2453.19 1002.65 2453.19 1008.59 2425.7 992.527C2424.06 991.569 2423.51 989.464 2424.47 987.825 2425.43 986.186 2427.53 985.634 2429.17 986.591Z"/><path d="M2443.31 782.062 2450.18 782.062 2450.18 788.938 2443.31 788.937ZM2457.06 782.062 2463.93 782.063 2463.93 788.938 2457.06 788.938ZM2470.81 782.063 2477.68 782.063 2477.68 788.938 2470.81 788.938ZM2484.56 782.063 2491.43 782.063 2491.43 788.938 2484.56 788.938ZM2498.31 782.063 2505.18 782.063 2505.18 788.938 2498.31 788.938ZM2512.06 782.063 2518.93 782.063 2518.93 788.938 2512.06 788.938ZM2525.81 782.063 2532.68 782.063 2532.68 788.938 2525.81 788.938ZM2469.07 804.511 2436.48 785.5 2469.07 766.489C2470.71 765.533 2472.82 766.086 2473.78 767.726 2474.73 769.366 2474.18 771.471 2472.54 772.428L2445.04 788.469 2445.04 782.531 2472.54 798.573C2474.18 799.529 2474.73 801.634 2473.78 803.274 2472.82 804.914 2470.71 805.468 2469.07 804.511ZM2509.77 766.489 2542.36 785.5 2509.77 804.511C2508.13 805.468 2506.03 804.914 2505.07 803.274 2504.12 801.634 2504.67 799.529 2506.31 798.573L2533.81 782.531 2533.81 788.469 2506.31 772.428C2504.67 771.471 2504.12 769.366 2505.07 767.726 2506.03 766.087 2508.13 765.533 2509.77 766.489Z"/><text font-family="Times New Roman,Times New Roman_MSFontService,sans-serif" font-weight="400" font-size="37" transform="matrix(1 0 0 1 2554.61 795)">asynchronous<tspan font-size="37" x="201.094" y="0">, e.g. via messaging</tspan><tspan font-size="46" x="-525.548" y="5">Message Broker</tspan></text><path d="M6.80693-3.43587 13.6819-3.43423 13.6803 3.44077 6.80528 3.43913ZM20.5569-3.43258 27.4319-3.43093 27.4303 3.44407 20.5553 3.44242ZM34.3069-3.42929 41.1819-3.42764 41.1803 3.44736 34.3053 3.44571ZM48.0569-3.426 54.9319-3.42435 54.9303 3.45065 48.0553 3.449ZM61.8069-3.42271 68.6819-3.42106 68.6803 3.45394 61.8053 3.45229ZM75.5569-3.41942 82.4319-3.41777 82.4303 3.45723 75.5553 3.45558ZM89.3069-3.41612 96.1819-3.41448 96.1803 3.46052 89.3053 3.45888ZM103.057-3.41283 109.932-3.41119 109.93 3.46381 103.055 3.46217ZM116.807-3.40954 123.682-3.4079 123.68 3.4671 116.805 3.46546ZM130.557-3.40625 137.432-3.40461 137.43 3.47039 130.555 3.46875ZM144.307-3.40296 146.988-3.40232 146.986 3.47268 144.305 3.47204ZM32.5696 19.0187-0.0159307-3.72964e-06 32.5787-19.0031C34.2188-19.9593 36.3235-19.4049 37.2797-17.7648 38.2359-16.1247 37.6815-14.02 36.0414-13.0638L8.5376 2.97128 8.53902-2.9672 36.0352 13.0811C37.6748 14.038 38.2282 16.143 37.2712 17.7826 36.3143 19.4223 34.2093 19.9757 32.5696 19.0187ZM121.223-18.9819 153.809 0.0368148 121.214 19.0399C119.574 19.9961 117.469 19.4417 116.513 17.8016 115.557 16.1615 116.111 14.0568 117.751 13.1006L145.255-2.93447 145.254 3.00401 117.758-13.0442C116.118-14.0012 115.565-16.1062 116.522-17.7458 117.479-19.3855 119.584-19.9389 121.223-18.9819Z" transform="matrix(1 0 0 -1 2304.5 1076.54)"/><path d="M6.81512-3.4202 13.6901-3.40274 13.6726 3.47224 6.79765 3.45477ZM20.5651-3.38528 27.44-3.36782 27.4226 3.50716 20.5476 3.4897ZM34.315-3.35036 41.19-3.3329 41.1725 3.54208 34.2976 3.52462ZM48.065-3.31544 54.94-3.29798 54.9225 3.577 48.0475 3.55954ZM61.8149-3.28052 68.6899-3.26306 68.6725 3.61192 61.7975 3.59446ZM75.5649-3.2456 82.4399-3.22814 82.4224 3.64684 75.5474 3.62938ZM89.3148-3.21068 96.1898-3.19322 96.1724 3.68176 89.2974 3.6643ZM103.065-3.17576 109.94-3.1583 109.922 3.71668 103.047 3.69922ZM116.815-3.14084 123.69-3.12337 123.672 3.7516 116.797 3.73414ZM130.565-3.10591 137.44-3.08845 137.422 3.78652 130.547 3.76906ZM144.315-3.07099 146.812-3.06465 146.795 3.81033 144.297 3.80398ZM32.5258 19.0936-0.0159314-4.0267e-05 32.6224-18.9281C34.2647-19.8805 36.3681-19.3213 37.3205-17.679 38.2729-16.0367 37.7137-13.9333 36.0714-12.9809L8.53074 2.99092 8.54582-2.94755 36.005 13.1639C37.6424 14.1247 38.191 16.2309 37.2302 17.8683 36.2695 19.5058 34.1632 20.0543 32.5258 19.0936ZM121.084-18.7035 153.626 0.390165 120.988 19.3182C119.345 20.2707 117.242 19.7114 116.289 18.0691 115.337 16.4268 115.896 14.3234 117.538 13.371L145.079-2.60079 145.064 3.33767 117.605-12.7738C115.967-13.7345 115.419-15.8408 116.38-17.4782 117.34-19.1156 119.447-19.6642 121.084-18.7035Z" transform="matrix(1 0 0 -1 2303.5 1288.89)"/><path d="M6.80858-3.43289 13.6836-3.42824 13.6789 3.44676 6.80392 3.4421ZM20.5586-3.42359 27.4336-3.41894 27.4289 3.45606 20.5539 3.45141ZM34.3086-3.41429 41.1836-3.40963 41.1789 3.46536 34.3039 3.46071ZM48.0586-3.40498 54.9336-3.40033 54.9289 3.47467 48.0539 3.47002ZM61.8086-3.39568 68.6836-3.39103 68.6789 3.48397 61.8039 3.47932ZM75.5586-3.38638 82.4336-3.38172 82.4289 3.49327 75.5539 3.48862ZM89.3086-3.37707 96.1836-3.37242 96.1789 3.50258 89.3039 3.49793ZM103.059-3.36777 109.934-3.36312 109.929 3.51188 103.054 3.50723ZM116.809-3.35847 123.684-3.35381 123.679 3.52119 116.804 3.51653ZM130.559-3.34916 137.434-3.34451 137.429 3.53049 130.554 3.52584ZM144.309-3.33986 146.807-3.33817 146.802 3.53683 144.304 3.53514ZM32.5613 19.0329-0.0159321-1.07637e-05 32.587-18.9889C34.2276-19.9443 36.332-19.389 37.2875-17.7485 38.243-16.108 37.6877-14.0035 36.0471-13.048L8.5363 2.97502 8.54031-2.96346 36.0295 13.0968C37.6687 14.0545 38.2211 16.1597 37.2635 17.7989 36.3058 19.4382 34.2005 19.9906 32.5613 19.0329ZM121.049-18.929 153.627 0.103948 121.024 19.0928C119.383 20.0483 117.279 19.4929 116.323 17.8524 115.368 16.2119 115.923 14.1075 117.563 13.152L145.074-2.87108 145.07 3.0674 117.581-12.9929C115.942-13.9506 115.389-16.0558 116.347-17.695 117.305-19.3342 119.41-19.8867 121.049-18.929Z" transform="matrix(1 0 0 -1 2303.5 1537.6)"/><path d="M2310.31 1783.06 2317.18 1783.06 2317.18 1789.94 2310.31 1789.94ZM2324.06 1783.06 2330.93 1783.06 2330.93 1789.94 2324.06 1789.94ZM2337.81 1783.06 2344.68 1783.06 2344.68 1789.94 2337.81 1789.94ZM2351.56 1783.06 2358.43 1783.06 2358.43 1789.94 2351.56 1789.94ZM2365.31 1783.06 2372.18 1783.06 2372.18 1789.94 2365.31 1789.94ZM2379.06 1783.06 2380.31 1783.06C2382.2 1783.06 2383.74 1784.6 2383.74 1786.5L2383.74 1786.63 2380.31 1783.2 2385.8 1783.2 2385.8 1790.07 2380.31 1790.07C2378.41 1790.07 2376.87 1788.53 2376.87 1786.63L2376.87 1786.5 2380.31 1789.94 2379.06 1789.94ZM2392.67 1783.2 2399.55 1783.2 2399.55 1790.07 2392.67 1790.07ZM2406.42 1783.2 2413.3 1783.2 2413.3 1790.07 2406.42 1790.07ZM2420.17 1783.2 2427.05 1783.2 2427.05 1790.07 2420.17 1790.07ZM2433.92 1783.2 2440.8 1783.2 2440.8 1790.07 2433.92 1790.07ZM2447.67 1783.2 2450.3 1783.2 2450.3 1790.07 2447.67 1790.07ZM2336.07 1805.51 2303.48 1786.5 2336.07 1767.49C2337.71 1766.53 2339.82 1767.09 2340.78 1768.73 2341.73 1770.37 2341.18 1772.47 2339.54 1773.43L2312.04 1789.47 2312.04 1783.53 2339.54 1799.57C2341.18 1800.53 2341.73 1802.63 2340.78 1804.27 2339.82 1805.91 2337.71 1806.47 2336.07 1805.51ZM2424.54 1767.62 2457.13 1786.63 2424.54 1805.65C2422.9 1806.6 2420.79 1806.05 2419.84 1804.41 2418.88 1802.77 2419.43 1800.66 2421.07 1799.71L2448.57 1783.67 2448.57 1789.6 2421.07 1773.56C2419.43 1772.61 2418.88 1770.5 2419.84 1768.86 2420.79 1767.22 2422.9 1766.67 2424.54 1767.62Z"/><rect x="2097.5" y="863.5" width="159" height="1062" stroke="#000000" stroke-width="6.875" stroke-miterlimit="8" fill="#FFFFFF"/><path d="M2087.19 1817.5C2098.06 1817.5 2106.87 1803.84 2106.87 1787 2106.87 1770.16 2098.06 1756.5 2087.19 1756.5L2283.81 1756.5C2294.69 1756.5 2303.5 1770.16 2303.5 1787 2303.5 1803.84 2294.69 1817.5 2283.81 1817.5Z" fill="#BFBFBF" fill-rule="evenodd"/><path d="M2087.19 1817.5C2076.31 1817.5 2067.5 1803.84 2067.5 1787 2067.5 1770.16 2076.31 1756.5 2087.19 1756.5 2098.06 1756.5 2106.87 1770.16 2106.87 1787 2106.87 1803.84 2098.06 1817.5 2087.19 1817.5Z" fill="#D9D9D9" fill-rule="evenodd"/><path d="M2087.19 1756.5C2098.06 1756.5 2106.87 1770.16 2106.87 1787 2106.87 1803.84 2098.06 1817.5 2087.19 1817.5 2076.31 1817.5 2067.5 1803.84 2067.5 1787 2067.5 1770.16 2076.31 1756.5 2087.19 1756.5L2283.81 1756.5C2294.69 1756.5 2303.5 1770.16 2303.5 1787 2303.5 1803.84 2294.69 1817.5 2283.81 1817.5L2087.19 1817.5" stroke="#000000" stroke-width="6.875" stroke-miterlimit="8" fill="none" fill-rule="evenodd"/><path d="M2086.86 1567.5C2097.56 1567.5 2106.23 1554.07 2106.23 1537.5 2106.23 1520.93 2097.56 1507.5 2086.86 1507.5L2284.14 1507.5C2294.83 1507.5 2303.5 1520.93 2303.5 1537.5 2303.5 1554.07 2294.83 1567.5 2284.14 1567.5Z" fill="#BFBFBF" fill-rule="evenodd"/><path d="M2086.86 1567.5C2076.17 1567.5 2067.5 1554.07 2067.5 1537.5 2067.5 1520.93 2076.17 1507.5 2086.86 1507.5 2097.56 1507.5 2106.23 1520.93 2106.23 1537.5 2106.23 1554.07 2097.56 1567.5 2086.86 1567.5Z" fill="#D9D9D9" fill-rule="evenodd"/><path d="M2086.86 1507.5C2097.56 1507.5 2106.23 1520.93 2106.23 1537.5 2106.23 1554.07 2097.56 1567.5 2086.86 1567.5 2076.17 1567.5 2067.5 1554.07 2067.5 1537.5 2067.5 1520.93 2076.17 1507.5 2086.86 1507.5L2284.14 1507.5C2294.83 1507.5 2303.5 1520.93 2303.5 1537.5 2303.5 1554.07 2294.83 1567.5 2284.14 1567.5L2086.86 1567.5" stroke="#000000" stroke-width="6.875" stroke-miterlimit="8" fill="none" fill-rule="evenodd"/><path d="M2144.5 1501C2144.5 1483.05 2160.17 1468.5 2179.5 1468.5 2198.83 1468.5 2214.5 1483.05 2214.5 1501 2214.5 1518.95 2198.83 1533.5 2179.5 1533.5 2160.17 1533.5 2144.5 1518.95 2144.5 1501Z" stroke="#000000" stroke-width="6.875" stroke-miterlimit="8" fill="#FFFFFF" fill-rule="evenodd"/><text font-family="Times New Roman,Times New Roman_MSFontService,sans-serif" font-weight="400" font-size="46" transform="matrix(1 0 0 1 2169.07 1516)">3</text><path d="M2144.5 1756C2144.5 1738.05 2160.39 1723.5 2180 1723.5 2199.61 1723.5 2215.5 1738.05 2215.5 1756 2215.5 1773.95 2199.61 1788.5 2180 1788.5 2160.39 1788.5 2144.5 1773.95 2144.5 1756Z" stroke="#000000" stroke-width="6.875" stroke-miterlimit="8" fill="#FFFFFF" fill-rule="evenodd"/><text font-family="Times New Roman,Times New Roman_MSFontService,sans-serif" font-weight="400" font-size="46" transform="matrix(1 0 0 1 2166.81 1770)">4</text><path d="M2088.19 1036.5C2099.06 1036.5 2107.87 1022.84 2107.87 1006 2107.87 989.155 2099.06 975.5 2088.19 975.5L2284.81 975.5C2295.69 975.5 2304.5 989.155 2304.5 1006 2304.5 1022.84 2295.69 1036.5 2284.81 1036.5Z" fill="#BFBFBF" fill-rule="evenodd"/><path d="M2088.19 1036.5C2077.31 1036.5 2068.5 1022.84 2068.5 1006 2068.5 989.155 2077.31 975.5 2088.19 975.5 2099.06 975.5 2107.87 989.155 2107.87 1006 2107.87 1022.84 2099.06 1036.5 2088.19 1036.5Z" fill="#D9D9D9" fill-rule="evenodd"/><path d="M2088.19 975.5C2099.06 975.5 2107.87 989.155 2107.87 1006 2107.87 1022.84 2099.06 1036.5 2088.19 1036.5 2077.31 1036.5 2068.5 1022.84 2068.5 1006 2068.5 989.155 2077.31 975.5 2088.19 975.5L2284.81 975.5C2295.69 975.5 2304.5 989.155 2304.5 1006 2304.5 1022.84 2295.69 1036.5 2284.81 1036.5L2088.19 1036.5" stroke="#000000" stroke-width="6.875" stroke-miterlimit="8" fill="none" fill-rule="evenodd"/><path d="M2087.86 1106.5C2098.56 1106.5 2107.23 1093.07 2107.23 1076.5 2107.23 1059.93 2098.56 1046.5 2087.86 1046.5L2285.14 1046.5C2295.83 1046.5 2304.5 1059.93 2304.5 1076.5 2304.5 1093.07 2295.83 1106.5 2285.14 1106.5Z" fill="#BFBFBF" fill-rule="evenodd"/><path d="M2087.86 1106.5C2077.17 1106.5 2068.5 1093.07 2068.5 1076.5 2068.5 1059.93 2077.17 1046.5 2087.86 1046.5 2098.56 1046.5 2107.23 1059.93 2107.23 1076.5 2107.23 1093.07 2098.56 1106.5 2087.86 1106.5Z" fill="#D9D9D9" fill-rule="evenodd"/><path d="M2087.86 1046.5C2098.56 1046.5 2107.23 1059.93 2107.23 1076.5 2107.23 1093.07 2098.56 1106.5 2087.86 1106.5 2077.17 1106.5 2068.5 1093.07 2068.5 1076.5 2068.5 1059.93 2077.17 1046.5 2087.86 1046.5L2285.14 1046.5C2295.83 1046.5 2304.5 1059.93 2304.5 1076.5 2304.5 1093.07 2295.83 1106.5 2285.14 1106.5L2087.86 1106.5" stroke="#000000" stroke-width="6.875" stroke-miterlimit="8" fill="none" fill-rule="evenodd"/><path d="M2144.5 975C2144.5 957.051 2160.39 942.5 2180 942.5 2199.61 942.5 2215.5 957.051 2215.5 975 2215.5 992.949 2199.61 1007.5 2180 1007.5 2160.39 1007.5 2144.5 992.949 2144.5 975Z" stroke="#000000" stroke-width="6.875" stroke-miterlimit="8" fill="#FFFFFF" fill-rule="evenodd"/><text font-family="Times New Roman,Times New Roman_MSFontService,sans-serif" font-weight="400" font-size="46" transform="matrix(1 0 0 1 2168.76 991)">1</text><path d="M2145.5 1105C2145.5 1087.05 2161.17 1072.5 2180.5 1072.5 2199.83 1072.5 2215.5 1087.05 2215.5 1105 2215.5 1122.95 2199.83 1137.5 2180.5 1137.5 2161.17 1137.5 2145.5 1122.95 2145.5 1105Z" stroke="#000000" stroke-width="6.875" stroke-miterlimit="8" fill="#FFFFFF" fill-rule="evenodd"/><text font-family="Times New Roman,Times New Roman_MSFontService,sans-serif" font-weight="400" font-size="46" transform="matrix(1 0 0 1 2168.34 1119)">5</text><path d="M2087.19 1319.5C2098.06 1319.5 2106.87 1305.84 2106.87 1289 2106.87 1272.16 2098.06 1258.5 2087.19 1258.5L2283.81 1258.5C2294.69 1258.5 2303.5 1272.16 2303.5 1289 2303.5 1305.84 2294.69 1319.5 2283.81 1319.5Z" fill="#BFBFBF" fill-rule="evenodd"/><path d="M2087.19 1319.5C2076.31 1319.5 2067.5 1305.84 2067.5 1289 2067.5 1272.16 2076.31 1258.5 2087.19 1258.5 2098.06 1258.5 2106.87 1272.16 2106.87 1289 2106.87 1305.84 2098.06 1319.5 2087.19 1319.5Z" fill="#D9D9D9" fill-rule="evenodd"/><path d="M2087.19 1258.5C2098.06 1258.5 2106.87 1272.16 2106.87 1289 2106.87 1305.84 2098.06 1319.5 2087.19 1319.5 2076.31 1319.5 2067.5 1305.84 2067.5 1289 2067.5 1272.16 2076.31 1258.5 2087.19 1258.5L2283.81 1258.5C2294.69 1258.5 2303.5 1272.16 2303.5 1289 2303.5 1305.84 2294.69 1319.5 2283.81 1319.5L2087.19 1319.5" stroke="#000000" stroke-width="6.875" stroke-miterlimit="8" fill="none" fill-rule="evenodd"/><path d="M2144.5 1257C2144.5 1239.05 2160.39 1224.5 2180 1224.5 2199.61 1224.5 2215.5 1239.05 2215.5 1257 2215.5 1274.95 2199.61 1289.5 2180 1289.5 2160.39 1289.5 2144.5 1274.95 2144.5 1257Z" stroke="#000000" stroke-width="6.875" stroke-miterlimit="8" fill="#FFFFFF" fill-rule="evenodd"/><text font-family="Times New Roman,Times New Roman_MSFontService,sans-serif" font-weight="400" font-size="46" transform="matrix(1 0 0 1 2168.76 1272)">2</text><rect x="1742.5" y="846.697" width="189.803" height="1099.8" fill="#A6A6A6"/><path d="M1932.3 846.697 1951.5 827.5 1951.5 1927.3 1932.3 1946.5Z" fill="#858585" fill-rule="evenodd"/><path d="M1742.5 846.697 1761.7 827.5 1951.5 827.5 1932.3 846.697Z" fill="#B7B7B7" fill-rule="evenodd"/><path d="M1742.5 846.697 1761.7 827.5 1951.5 827.5 1951.5 1927.3 1932.3 1946.5 1742.5 1946.5ZM1742.5 846.697 1932.3 846.697 1951.5 827.5M1932.3 846.697 1932.3 1946.5" stroke="#000000" stroke-width="6.875" stroke-miterlimit="8" fill="none" fill-rule="evenodd"/><rect x="1756.5" y="863.5" width="158" height="1062" stroke="#000000" stroke-width="6.875" stroke-miterlimit="8" fill="#FFFFFF"/><text font-family="Times New Roman,Times New Roman_MSFontService,sans-serif" font-weight="400" font-size="55" transform="matrix(6.12323e-17 -1 1 6.12323e-17 1855.21 1532)">Orchestrator</text><rect x="2456.5" y="931.703" width="573.797" height="210.797" fill="#A6A6A6"/><path d="M3030.3 931.703 3045.5 916.5 3045.5 1127.3 3030.3 1142.5Z" fill="#858585" fill-rule="evenodd"/><path d="M2456.5 931.703 2471.7 916.5 3045.5 916.5 3030.3 931.703Z" fill="#B7B7B7" fill-rule="evenodd"/><path d="M2456.5 931.703 2471.7 916.5 3045.5 916.5 3045.5 1127.3 3030.3 1142.5 2456.5 1142.5ZM2456.5 931.703 3030.3 931.703 3045.5 916.5M3030.3 931.703 3030.3 1142.5" stroke="#000000" stroke-width="6.875" stroke-miterlimit="8" fill="none" fill-rule="evenodd"/><rect x="2473.5" y="951.5" width="536" height="172" stroke="#000000" stroke-width="6.875" stroke-miterlimit="8" fill="#FFFFFF"/><text font-family="Times New Roman,Times New Roman_MSFontService,sans-serif" font-weight="400" font-size="50" transform="matrix(1 0 0 1 2499.26 1026)">Problem &amp; Solution<tspan font-size="50" x="0" y="60">Mapping Service</tspan></text><rect x="2940.5" y="970.5" width="48.0002" height="60.0001" stroke="#000000" stroke-width="6.875" stroke-miterlimit="8" fill="#FFFFFF"/><rect x="2929.5" y="999.5" width="20" height="12.9997" stroke="#000000" stroke-width="6.875" stroke-miterlimit="8" fill="#FFFFFF"/><rect x="2929.5" y="981.5" width="20" height="13.0001" stroke="#000000" stroke-width="6.875" stroke-miterlimit="8" fill="#FFFFFF"/><rect x="2456.5" y="1186.23" width="574.268" height="204.268" fill="#A6A6A6"/><path d="M3030.77 1186.23 3045.5 1171.5 3045.5 1375.77 3030.77 1390.5Z" fill="#858585" fill-rule="evenodd"/><path d="M2456.5 1186.23 2471.23 1171.5 3045.5 1171.5 3030.77 1186.23Z" fill="#B7B7B7" fill-rule="evenodd"/><path d="M2456.5 1186.23 2471.23 1171.5 3045.5 1171.5 3045.5 1375.77 3030.77 1390.5 2456.5 1390.5ZM2456.5 1186.23 3030.77 1186.23 3045.5 1171.5M3030.77 1186.23 3030.77 1390.5" stroke="#000000" stroke-width="6.875" stroke-miterlimit="8" fill="none" fill-rule="evenodd"/><rect x="2473.5" y="1207.5" width="534" height="162" stroke="#000000" stroke-width="6.875" stroke-miterlimit="8" fill="#FFFFFF"/><text font-family="Times New Roman,Times New Roman_MSFontService,sans-serif" font-weight="400" font-size="50" transform="matrix(1 0 0 1 2499.26 1277)">Quantum Circuit<tspan font-size="50" x="0" y="60">Generation Service</tspan></text><rect x="2940.5" y="1225.5" width="48.0002" height="61.0002" stroke="#000000" stroke-width="6.875" stroke-miterlimit="8" fill="#FFFFFF"/><rect x="2929.5" y="1254.5" width="20" height="13.0001" stroke="#000000" stroke-width="6.875" stroke-miterlimit="8" fill="#FFFFFF"/><rect x="2929.5" y="1236.5" width="20" height="13.0001" stroke="#000000" stroke-width="6.875" stroke-miterlimit="8" fill="#FFFFFF"/><rect x="2456.5" y="1435.23" width="574.268" height="204.268" fill="#A6A6A6"/><path d="M3030.77 1435.23 3045.5 1420.5 3045.5 1624.77 3030.77 1639.5Z" fill="#858585" fill-rule="evenodd"/><path d="M2456.5 1435.23 2471.23 1420.5 3045.5 1420.5 3030.77 1435.23Z" fill="#B7B7B7" fill-rule="evenodd"/><path d="M2456.5 1435.23 2471.23 1420.5 3045.5 1420.5 3045.5 1624.77 3030.77 1639.5 2456.5 1639.5ZM2456.5 1435.23 3030.77 1435.23 3045.5 1420.5M3030.77 1435.23 3030.77 1639.5" stroke="#000000" stroke-width="6.875" stroke-miterlimit="8" fill="none" fill-rule="evenodd"/><rect x="2473.5" y="1456.5" width="534" height="163" stroke="#000000" stroke-width="6.875" stroke-miterlimit="8" fill="#FFFFFF"/><text font-family="Times New Roman,Times New Roman_MSFontService,sans-serif" font-weight="400" font-size="50" transform="matrix(1 0 0 1 2499.26 1526)">Quantum Circuit<tspan font-size="50" x="0" y="60">Refinement</tspan><tspan font-size="50" x="246.927" y="60">Service</tspan></text><rect x="2941.5" y="1474.5" width="48.0002" height="60.0001" stroke="#000000" stroke-width="6.875" stroke-miterlimit="8" fill="#FFFFFF"/><rect x="2930.5" y="1503.5" width="20" height="13.0001" stroke="#000000" stroke-width="6.875" stroke-miterlimit="8" fill="#FFFFFF"/><rect x="2930.5" y="1485.5" width="20" height="13.0001" stroke="#000000" stroke-width="6.875" stroke-miterlimit="8" fill="#FFFFFF"/><rect x="2456.5" y="1685.23" width="574.268" height="204.268" fill="#A6A6A6"/><path d="M3030.77 1685.23 3045.5 1670.5 3045.5 1874.77 3030.77 1889.5Z" fill="#858585" fill-rule="evenodd"/><path d="M2456.5 1685.23 2471.23 1670.5 3045.5 1670.5 3030.77 1685.23Z" fill="#B7B7B7" fill-rule="evenodd"/><path d="M2456.5 1685.23 2471.23 1670.5 3045.5 1670.5 3045.5 1874.77 3030.77 1889.5 2456.5 1889.5ZM2456.5 1685.23 3030.77 1685.23 3045.5 1670.5M3030.77 1685.23 3030.77 1889.5" stroke="#000000" stroke-width="6.875" stroke-miterlimit="8" fill="none" fill-rule="evenodd"/><rect x="2473.5" y="1706.5" width="534" height="164" stroke="#000000" stroke-width="6.875" stroke-miterlimit="8" fill="#FFFFFF"/><text font-family="Times New Roman,Times New Roman_MSFontService,sans-serif" font-weight="400" font-size="50" transform="matrix(1 0 0 1 2499.26 1777)">Quantum Circuit<tspan font-size="50" x="0" y="59">Execution</tspan><tspan font-size="50" x="216.563" y="59">Service</tspan></text><rect x="2940.5" y="1722.5" width="48.0002" height="59.9998" stroke="#000000" stroke-width="6.875" stroke-miterlimit="8" fill="#FFFFFF"/><rect x="2929.5" y="1750.5" width="20" height="14.0001" stroke="#000000" stroke-width="6.875" stroke-miterlimit="8" fill="#FFFFFF"/><rect x="2929.5" y="1732.5" width="20" height="14.0001" stroke="#000000" stroke-width="6.875" stroke-miterlimit="8" fill="#FFFFFF"/><path d="M1742.5 2039C1742.5 2023.81 1785.03 2011.5 1837.5 2011.5 1889.97 2011.5 1932.5 2023.81 1932.5 2039L1932.5 2149C1932.5 2164.19 1889.97 2176.5 1837.5 2176.5 1785.03 2176.5 1742.5 2164.19 1742.5 2149Z" fill="#FFFFFF" fill-rule="evenodd"/><path d="M1932.5 2039C1932.5 2054.19 1889.97 2066.5 1837.5 2066.5 1785.03 2066.5 1742.5 2054.19 1742.5 2039" stroke="#000000" stroke-width="6.875" stroke-miterlimit="8" fill="none" fill-rule="evenodd"/><path d="M1742.5 2039C1742.5 2023.81 1785.03 2011.5 1837.5 2011.5 1889.97 2011.5 1932.5 2023.81 1932.5 2039L1932.5 2149C1932.5 2164.19 1889.97 2176.5 1837.5 2176.5 1785.03 2176.5 1742.5 2164.19 1742.5 2149Z" stroke="#000000" stroke-width="6.875" stroke-miterlimit="8" fill="none" fill-rule="evenodd"/><text font-family="Times New Roman,Times New Roman_MSFontService,sans-serif" font-weight="400" font-size="37" transform="matrix(1 0 0 1 1776.54 2108)">Pipeline<tspan font-size="37" x="16.3167" y="44">States</tspan></text><path d="M3.46839 22.912 3.49394 41.8618-3.38106 41.8711-3.4066 22.9213ZM-13.7129 27.5185 0 0 13.7871 27.4814ZM13.8003 37.2646 0.087336 64.7831-13.6997 37.3016Z" transform="matrix(-1 0 0 1 1837.59 1946.5)"/><rect x="2456.5" y="2043" width="575.499" height="133.498" fill="#A6A6A6"/><path d="M3032 2043 3045.5 2029.5 3045.5 2163 3032 2176.5Z" fill="#858585" fill-rule="evenodd"/><path d="M2456.5 2043 2470 2029.5 3045.5 2029.5 3032 2043Z" fill="#B7B7B7" fill-rule="evenodd"/><path d="M2456.5 2043 2470 2029.5 3045.5 2029.5 3045.5 2163 3032 2176.5 2456.5 2176.5ZM2456.5 2043 3032 2043 3045.5 2029.5M3032 2043 3032 2176.5" stroke="#000000" stroke-width="6.875" stroke-miterlimit="8" fill="none" fill-rule="evenodd"/><rect x="2473.5" y="2063.5" width="534" height="92.0002" stroke="#000000" stroke-width="6.875" stroke-miterlimit="8" fill="#FFFFFF"/><text font-family="Times New Roman,Times New Roman_MSFontService,sans-serif" font-weight="400" font-size="41" transform="matrix(1 0 0 1 2527.11 2125)">Cloud <tspan font-size="41" x="111.146" y="0">Platforms</tspan><tspan font-size="41" x="281.875" y="0">(</tspan>QCaaS<tspan font-size="41" x="412.5" y="0">)</tspan></text><path d="M6.80624-3.4375 13.6812-3.4375 13.6812 3.4375 6.80624 3.4375ZM20.5562-3.4375 27.4312-3.4375 27.4312 3.4375 20.5562 3.4375ZM34.3062-3.4375 41.1812-3.4375 41.1812 3.4375 34.3062 3.4375ZM48.0562-3.4375 54.9312-3.4375 54.9312 3.4375 48.0562 3.4375ZM61.7662 3.47755 61.7662 10.3526 54.8912 10.3526 54.8912 3.47755ZM61.7662 17.2276 61.7662 24.1026 54.8912 24.1026 54.8912 17.2276ZM61.7662 30.9776 61.7662 37.8526 54.8912 37.8526 54.8912 30.9776ZM61.7662 44.7276 61.7662 51.6026 54.8912 51.6026 54.8912 44.7276ZM61.7662 58.4776 61.7662 65.3526 54.8912 65.3526 54.8912 58.4776ZM61.7662 72.2276 61.7662 79.1026 54.8912 79.1026 54.8912 72.2276ZM61.7662 85.9776 61.7662 92.8526 54.8912 92.8526 54.8912 85.9776ZM61.7662 99.7276 61.7662 106.603 54.8912 106.603 54.8912 99.7276ZM61.7662 113.478 61.7662 120.353 54.8912 120.353 54.8912 113.478ZM61.7662 127.228 61.7662 134.103 54.8912 134.103 54.8912 127.228ZM61.7662 140.978 61.7662 147.853 54.8912 147.853 54.8912 140.978ZM61.7662 154.728 61.7662 161.603 54.8912 161.603 54.8912 154.728ZM61.7662 168.478 61.7662 175.353 54.8912 175.353 54.8912 168.478ZM61.7662 182.228 61.7662 189.103 54.8912 189.103 54.8912 182.228ZM61.7662 195.978 61.7662 202.853 54.8912 202.853 54.8912 195.978ZM61.7662 209.728 61.7662 216.603 54.8912 216.603 54.8912 209.728ZM61.7662 223.478 61.7662 230.353 54.8912 230.353 54.8912 223.478ZM61.7662 237.228 61.7662 244.103 54.8912 244.103 54.8912 237.228ZM61.7662 250.978 61.7662 257.853 54.8912 257.853 54.8912 250.978ZM61.7662 264.728 61.7662 271.603 54.8912 271.603 54.8912 264.728ZM61.7662 278.478 61.7662 285.353 54.8912 285.353 54.8912 278.478ZM61.7662 292.228 61.7662 299.103 54.8912 299.103 54.8912 292.228ZM61.7662 305.978 61.7662 312.853 54.8912 312.853 54.8912 305.978ZM61.7662 319.728 61.7662 326.603 54.8912 326.603 54.8912 319.728ZM61.7662 333.478 61.7662 340.353 54.8912 340.353 54.8912 333.478ZM61.7662 347.228 61.7662 354.103 54.8912 354.103 54.8912 347.228ZM61.7662 360.978 61.7662 367.853 54.8912 367.853 54.8912 360.978ZM61.4057 368.213 68.2807 368.213 68.2807 375.088 61.4057 375.088ZM75.1557 368.213 82.0307 368.213 82.0307 375.088 75.1557 375.088ZM88.9057 368.213 95.7807 368.213 95.7807 375.088 88.9057 375.088ZM102.656 368.213 109.531 368.213 109.531 375.088 102.656 375.088ZM32.5742 19.0109-0.0159314 0 32.5742-19.0109C34.2141-19.9675 36.3189-19.4136 37.2755-17.7737 38.2321-16.1339 37.6782-14.029 36.0383-13.0724L8.53831 2.96924 8.53831-2.96924 36.0383 13.0724C37.6782 14.029 38.2321 16.1339 37.2755 17.7737 36.3189 19.4136 34.2141 19.9675 32.5742 19.0109ZM84.0832 352.64 116.673 371.651 84.0832 390.661C82.4433 391.618 80.3385 391.064 79.3819 389.424 78.4253 387.784 78.9792 385.68 80.6191 384.723L108.119 368.681 108.119 374.62 80.6191 358.578C78.9792 357.622 78.4253 355.517 79.3819 353.877 80.3385 352.237 82.4433 351.683 84.0832 352.64Z" transform="matrix(1 0 0 -1 1951.5 1377.15)"/><path d="M6.80624-3.4375 13.6812-3.4375 13.6812 3.4375 6.80624 3.4375ZM20.5562-3.4375 27.4312-3.4375 27.4312 3.4375 20.5562 3.4375ZM34.3062-3.4375 41.1812-3.4375 41.1812 3.4375 34.3062 3.4375ZM48.0562-3.4375 54.9312-3.4375 54.9312 3.4375 48.0562 3.4375ZM61.7665 3.47721 61.7665 10.3522 54.8915 10.3522 54.8915 3.47721ZM61.7665 17.2272 61.7665 24.1022 54.8915 24.1022 54.8915 17.2272ZM61.7665 30.9772 61.7665 37.8522 54.8915 37.8522 54.8915 30.9772ZM61.7665 44.7272 61.7665 51.6022 54.8915 51.6022 54.8915 44.7272ZM61.7665 58.4772 61.7665 65.3522 54.8915 65.3522 54.8915 58.4772ZM61.7665 72.2272 61.7665 79.1022 54.8915 79.1022 54.8915 72.2272ZM61.7665 85.9772 61.7665 92.8522 54.8915 92.8522 54.8915 85.9772ZM61.7665 99.7272 61.7665 106.602 54.8915 106.602 54.8915 99.7272ZM61.7665 113.477 61.7665 120.352 54.8915 120.352 54.8915 113.477ZM61.7665 127.227 61.7665 134.102 54.8915 134.102 54.8915 127.227ZM61.7665 140.977 61.7665 147.852 54.8915 147.852 54.8915 140.977ZM61.7665 154.727 61.7665 161.602 54.8915 161.602 54.8915 154.727ZM61.7665 168.477 61.7665 175.352 54.8915 175.352 54.8915 168.477ZM61.7665 182.227 61.7665 189.102 54.8915 189.102 54.8915 182.227ZM61.7665 195.977 61.7665 202.852 54.8915 202.852 54.8915 195.977ZM61.7665 209.727 61.7665 216.602 54.8915 216.602 54.8915 209.727ZM61.7665 223.477 61.7665 230.352 54.8915 230.352 54.8915 223.477ZM61.7665 237.227 61.7665 244.102 54.8915 244.102 54.8915 237.227ZM61.7665 250.977 61.7665 257.852 54.8915 257.852 54.8915 250.977ZM61.7665 264.727 61.7665 271.602 54.8915 271.602 54.8915 264.727ZM61.7665 278.477 61.7665 285.352 54.8915 285.352 54.8915 278.477ZM61.7665 292.227 61.7665 299.102 54.8915 299.102 54.8915 292.227ZM63.2906 297.578 70.1656 297.578 70.1656 304.453 63.2906 304.453ZM77.0406 297.578 83.9156 297.578 83.9156 304.453 77.0406 304.453ZM90.7906 297.578 97.6656 297.578 97.6656 304.453 90.7906 304.453ZM104.541 297.578 109.851 297.578 109.851 304.453 104.541 304.453ZM32.5742 19.0109-0.0159314 0 32.5742-19.0109C34.2141-19.9675 36.3189-19.4136 37.2755-17.7737 38.2321-16.1339 37.6782-14.029 36.0383-13.0724L8.53831 2.96924 8.53831-2.96924 36.0383 13.0724C37.6782 14.029 38.2321 16.1339 37.2755 17.7737 36.3189 19.4136 34.2141 19.9675 32.5742 19.0109ZM84.0835 282.005 116.674 301.016 84.0835 320.027C82.4437 320.983 80.3388 320.429 79.3822 318.789 78.4257 317.15 78.9796 315.045 80.6194 314.088L108.119 298.046 108.119 303.985 80.6194 287.943C78.9796 286.987 78.4257 284.882 79.3822 283.242 80.3388 281.602 82.4437 281.048 84.0835 282.005Z" transform="matrix(1 0 0 -1 1951.5 1377.52)"/><path d="M6.80624-3.4375 13.6812-3.4375 13.6812 3.4375 6.80624 3.4375ZM20.5562-3.4375 27.4312-3.4375 27.4312 3.4375 20.5562 3.4375ZM34.3062-3.4375 41.1812-3.4375 41.1812 3.4375 34.3062 3.4375ZM48.0562-3.4375 54.9312-3.4375 54.9312 3.4375 48.0562 3.4375ZM61.1936 4.05011 61.1936 10.9251 54.3186 10.9251 54.3186 4.05011ZM61.1936 17.8001 61.1936 24.6751 54.3186 24.6751 54.3186 17.8001ZM61.1936 31.5501 61.1936 38.4251 54.3186 38.4251 54.3186 31.5501ZM61.1936 45.3001 61.1936 52.1751 54.3186 52.1751 54.3186 45.3001ZM61.1936 59.0501 61.1936 65.9251 54.3186 65.9251 54.3186 59.0501ZM61.1936 72.8001 61.1936 79.6751 54.3186 79.6751 54.3186 72.8001ZM61.1936 86.5501 61.1936 88.4836 57.7561 85.0461 62.6976 85.0461 62.6976 91.9211 57.7561 91.9211C55.8577 91.9211 54.3186 90.3821 54.3186 88.4836L54.3186 86.5501ZM69.5726 85.0461 76.4476 85.0461 76.4476 91.9211 69.5726 91.9211ZM83.3226 85.0461 90.1976 85.0461 90.1976 91.9211 83.3226 91.9211ZM97.0727 85.0461 103.948 85.0461 103.948 91.9211 97.0727 91.9211ZM32.5742 19.0109-0.0159314 0 32.5742-19.0109C34.2141-19.9675 36.3189-19.4136 37.2755-17.7737 38.2321-16.1339 37.6782-14.029 36.0383-13.0724L8.53831 2.96924 8.53831-2.96924 36.0383 13.0724C37.6782 14.029 38.2321 16.1339 37.2755 17.7737 36.3189 19.4136 34.2141 19.9675 32.5742 19.0109ZM82.9381 69.4727 115.528 88.4836 82.9381 107.495C81.2982 108.451 79.1934 107.897 78.2368 106.257 77.2802 104.617 77.8341 102.513 79.474 101.556L106.974 85.5144 106.974 91.4528 79.474 75.4112C77.8341 74.4546 77.2802 72.3497 78.2368 70.7099 79.1934 69.07 81.2982 68.5161 82.9381 69.4727Z" transform="matrix(1 0 0 -1 1951.5 1377.98)"/><path d="M1958.31 1374.06 1965.18 1374.06 1965.18 1380.94 1958.31 1380.94ZM1972.06 1374.06 1978.93 1374.06 1978.93 1380.94 1972.06 1380.94ZM1985.81 1374.06 1992.68 1374.06 1992.68 1380.94 1985.81 1380.94ZM1999.56 1374.06 2006.43 1374.06 2006.43 1380.94 1999.56 1380.94ZM2012.69 1381.55 2012.69 1388.42 2005.82 1388.42 2005.82 1381.55ZM2012.69 1395.3 2012.69 1402.17 2005.82 1402.17 2005.82 1395.3ZM2012.69 1409.05 2012.69 1415.92 2005.82 1415.92 2005.82 1409.05ZM2012.69 1422.8 2012.69 1429.67 2005.82 1429.67 2005.82 1422.8ZM2012.69 1436.55 2012.69 1443.42 2005.82 1443.42 2005.82 1436.55ZM2012.69 1450.3 2012.69 1457.17 2005.82 1457.17 2005.82 1450.3ZM2012.69 1464.05 2012.69 1470.92 2005.82 1470.92 2005.82 1464.05ZM2012.69 1477.8 2012.69 1484.67 2005.82 1484.67 2005.82 1477.8ZM2012.69 1491.55 2012.69 1498.42 2005.82 1498.42 2005.82 1491.55ZM2012.69 1505.3 2012.69 1512.17 2005.82 1512.17 2005.82 1505.3ZM2012.69 1519.05 2012.69 1525.92 2005.82 1525.92 2005.82 1519.05ZM2012.69 1532.8 2012.69 1537.34 2009.26 1533.91 2011.59 1533.91 2011.59 1540.78 2009.26 1540.78C2007.36 1540.78 2005.82 1539.24 2005.82 1537.34L2005.82 1532.8ZM2018.46 1533.91 2025.34 1533.91 2025.34 1540.78 2018.46 1540.78ZM2032.21 1533.91 2039.09 1533.91 2039.09 1540.78 2032.21 1540.78ZM2045.96 1533.91 2052.84 1533.91 2052.84 1540.78 2045.96 1540.78ZM2059.71 1533.91 2060.21 1533.91 2060.21 1540.78 2059.71 1540.78ZM1984.07 1396.51 1951.48 1377.5 1984.07 1358.49C1985.71 1357.53 1987.82 1358.09 1988.78 1359.73 1989.73 1361.37 1989.18 1363.47 1987.54 1364.43L1960.04 1380.47 1960.04 1374.53 1987.54 1390.57C1989.18 1391.53 1989.73 1393.63 1988.78 1395.27 1987.82 1396.91 1985.71 1397.47 1984.07 1396.51ZM2034.44 1518.33 2067.03 1537.34 2034.44 1556.35C2032.8 1557.31 2030.69 1556.76 2029.74 1555.12 2028.78 1553.48 2029.33 1551.37 2030.97 1550.42L2058.47 1534.37 2058.47 1540.31 2030.97 1524.27C2029.33 1523.31 2028.78 1521.21 2029.74 1519.57 2030.69 1517.93 2032.8 1517.38 2034.44 1518.33Z"/><path d="M1958.31 1374.06 1965.18 1374.06 1965.18 1380.94 1958.31 1380.94ZM1972.06 1374.06 1978.93 1374.06 1978.93 1380.94 1972.06 1380.94ZM1985.81 1374.06 1992.68 1374.06 1992.68 1380.94 1985.81 1380.94ZM1999.56 1374.06 2006.43 1374.06 2006.43 1380.94 1999.56 1380.94ZM2012.69 1381.55 2012.69 1388.43 2005.82 1388.43 2005.82 1381.55ZM2012.69 1395.3 2012.69 1402.18 2005.82 1402.18 2005.82 1395.3ZM2012.69 1409.05 2012.69 1415.93 2005.82 1415.93 2005.82 1409.05ZM2012.69 1422.8 2012.69 1429.68 2005.82 1429.68 2005.82 1422.8ZM2012.69 1436.55 2012.69 1443.43 2005.82 1443.43 2005.82 1436.55ZM2012.69 1450.3 2012.69 1457.18 2005.82 1457.18 2005.82 1450.3ZM2012.69 1464.05 2012.69 1470.93 2005.82 1470.93 2005.82 1464.05ZM2012.69 1477.8 2012.69 1484.68 2005.82 1484.68 2005.82 1477.8ZM2012.69 1491.55 2012.69 1498.43 2005.82 1498.43 2005.82 1491.55ZM2012.69 1505.3 2012.69 1512.18 2005.82 1512.18 2005.82 1505.3ZM2012.69 1519.05 2012.69 1525.93 2005.82 1525.93 2005.82 1519.05ZM2012.69 1532.8 2012.69 1539.68 2005.82 1539.68 2005.82 1532.8ZM2012.69 1546.55 2012.69 1553.43 2005.82 1553.43 2005.82 1546.55ZM2012.69 1560.3 2012.69 1567.18 2005.82 1567.18 2005.82 1560.3ZM2012.69 1574.05 2012.69 1580.93 2005.82 1580.93 2005.82 1574.05ZM2012.69 1587.8 2012.69 1594.68 2005.82 1594.68 2005.82 1587.8ZM2012.69 1601.55 2012.69 1608.43 2005.82 1608.43 2005.82 1601.55ZM2012.69 1615.3 2012.69 1622.18 2005.82 1622.18 2005.82 1615.3ZM2012.69 1629.05 2012.69 1635.93 2005.82 1635.93 2005.82 1629.05ZM2012.69 1642.8 2012.69 1649.68 2005.82 1649.68 2005.82 1642.8ZM2012.69 1656.55 2012.69 1663.43 2005.82 1663.43 2005.82 1656.55ZM2012.69 1670.3 2012.69 1677.18 2005.82 1677.18 2005.82 1670.3ZM2012.69 1684.05 2012.69 1690.93 2005.82 1690.93 2005.82 1684.05ZM2012.69 1697.8 2012.69 1704.68 2005.82 1704.68 2005.82 1697.8ZM2012.69 1711.55 2012.69 1718.43 2005.82 1718.43 2005.82 1711.55ZM2012.69 1725.3 2012.69 1732.18 2005.82 1732.18 2005.82 1725.3ZM2012.69 1739.05 2012.69 1745.93 2005.82 1745.93 2005.82 1739.05ZM2012.69 1752.8 2012.69 1759.68 2005.82 1759.68 2005.82 1752.8ZM2012.69 1766.55 2012.69 1773.43 2005.82 1773.43 2005.82 1766.55ZM2012.69 1780.3 2012.69 1786.87 2009.26 1783.44 2009.56 1783.44 2009.56 1790.31 2009.26 1790.31C2007.36 1790.31 2005.82 1788.77 2005.82 1786.87L2005.82 1780.3ZM2016.43 1783.44 2023.31 1783.44 2023.31 1790.31 2016.43 1790.31ZM2030.18 1783.44 2037.06 1783.44 2037.06 1790.31 2030.18 1790.31ZM2043.93 1783.44 2050.81 1783.44 2050.81 1790.31 2043.93 1790.31ZM2057.68 1783.44 2060.21 1783.44 2060.21 1790.31 2057.68 1790.31ZM1984.07 1396.51 1951.48 1377.5 1984.07 1358.49C1985.71 1357.53 1987.82 1358.09 1988.78 1359.73 1989.73 1361.37 1989.18 1363.47 1987.54 1364.43L1960.04 1380.47 1960.04 1374.53 1987.54 1390.57C1989.18 1391.53 1989.73 1393.63 1988.78 1395.27 1987.82 1396.91 1985.71 1397.47 1984.07 1396.51ZM2034.44 1767.86 2067.03 1786.87 2034.44 1805.88C2032.8 1806.84 2030.69 1806.29 2029.74 1804.65 2028.78 1803.01 2029.33 1800.9 2030.97 1799.95L2058.47 1783.9 2058.47 1789.84 2030.97 1773.8C2029.33 1772.84 2028.78 1770.74 2029.74 1769.1 2030.69 1767.46 2032.8 1766.91 2034.44 1767.86Z"/></g></svg>